<svg width="37" height="40" viewBox="0 0 37 40" fill="none" xmlns="http://www.w3.org/2000/svg">
<path d="M24.5535 17.3404C24.828 17.0824 25.1048 16.7414 25.3558 16.4576C25.6334 16.1441 25.9144 15.8346 26.1918 15.5215L29.4042 11.8795C29.5884 11.6699 29.7817 11.4584 29.9635 11.2513C30.9593 10.1178 31.9668 8.94593 33.6304 9.02463C34.4793 9.06477 35.1434 9.35162 35.741 9.98613C36.3015 10.577 36.5988 11.3695 36.5655 12.1833C36.5338 13.08 36.0756 13.8456 35.4239 14.435C34.0123 15.7119 32.4352 16.9216 31.0436 18.2121C31.8342 18.25 33.1252 18.781 33.8261 19.1676C35.0337 19.8338 35.0722 20.8461 35.0045 22.0895C34.7707 26.2084 32.9127 30.0661 29.8375 32.8162C28.8032 33.7394 27.3029 34.782 26.0441 35.3793L26.04 35.4132C25.9049 36.5913 26.2634 37.8242 25.1882 38.6914C24.961 38.8744 24.7068 39.034 24.4388 39.1496C22.089 40.1627 16.4973 40.1088 13.8731 39.812C13.5192 39.772 13.1674 39.7189 12.8141 39.6743C11.6411 39.5263 10.2708 39.3526 9.4821 38.3621C9.18547 37.9897 9.02964 37.58 8.99528 37.1065C8.96469 36.7829 8.9801 35.5177 8.882 35.3715C8.57797 35.2306 7.99786 34.8929 7.69975 34.7179C4.5662 32.8881 2.17203 30.0188 0.932553 26.6085C0.355948 25.0412 0.0543162 23.3191 0.00463514 21.654C-0.0119544 21.0979 -0.00204507 20.349 0.349975 19.8956C0.873228 19.2217 1.9434 18.6918 2.74914 18.4574C7.16036 17.174 11.9056 17.0686 16.4712 17.04C17.4724 17.0338 18.4455 17.0283 19.4302 17.0639C20.5306 17.1041 21.6307 17.1542 22.7302 17.2145C23.3355 17.2525 23.9455 17.3477 24.5535 17.3404ZM15.4401 24.7785C14.9533 24.8029 14.1605 24.7407 13.6545 24.7263C13.3518 24.7178 12.6674 24.693 12.4068 24.6544C11.7785 24.6844 11.1258 24.6155 10.4986 24.5723C10.0798 24.5436 9.6526 24.5348 9.23536 24.4963C8.19607 24.3976 7.16141 24.2548 6.13423 24.0683C4.79329 23.8348 3.56256 23.6062 2.29123 23.0759C2.09597 22.9944 1.82915 22.8959 1.65182 22.7952C1.86052 26.1318 3.64621 29.393 6.0502 31.6578C8.77438 34.2234 12.2264 35.3966 15.9315 35.458C17.3181 35.4809 18.548 35.5436 19.9419 35.428C22.8956 35.2065 25.7204 34.2989 28.033 32.4033C28.7108 31.8477 29.2543 31.3873 29.8558 30.7146C31.6785 28.676 33.2722 25.4979 33.3938 22.7211C31.7056 23.5336 29.6764 23.8653 27.8337 24.1251C26.3495 24.3461 24.8557 24.4965 23.3574 24.5762C22.8349 24.6062 22.0685 24.6886 21.5576 24.6561C21.2869 24.6281 20.8313 24.6384 20.5533 24.6466C20.1369 24.6588 19.3959 24.5952 19.0357 24.7724C18.588 24.8136 17.8396 24.7975 17.3752 24.7963C16.7793 24.7946 16.0234 24.8177 15.4401 24.7785ZM21.0272 18.6826C19.4081 18.6257 17.7998 18.5406 16.1782 18.5493C15.0289 18.5555 13.8891 18.6167 12.742 18.671C12.2309 18.6952 11.7181 18.6963 11.2075 18.7274C9.26039 18.8461 3.14408 19.3209 1.83059 20.5345C1.7486 20.6103 1.65782 20.7231 1.6548 20.8404C1.65175 20.9575 1.73827 21.0563 1.81862 21.1314C2.09626 21.3912 2.48398 21.553 2.83335 21.6936C3.91492 22.1291 5.07549 22.353 6.22177 22.5385C6.60998 22.6013 6.99544 22.6739 7.38621 22.7212C7.69551 22.7586 8.00795 22.7727 8.31795 22.8057C10.4126 23.0285 12.4897 23.1485 14.5951 23.2017C15.9443 23.2355 17.2863 23.2833 18.6363 23.2253C18.8585 23.2158 19.2547 23.2507 19.413 23.0947C19.759 22.7539 20.0578 22.3654 20.3857 22.0072C20.8127 21.5409 21.2346 21.0748 21.6461 20.5945C21.7645 20.4562 21.9195 20.3175 22.0219 20.1697C22.4441 19.7888 22.8563 19.1898 23.2814 18.8129C22.4928 18.7587 21.8372 18.6767 21.0272 18.6826ZM24.45 37.4126C24.663 36.7149 24.5918 36.6583 24.6208 35.9547C23.2528 36.4468 21.8254 36.6551 20.3885 36.7906C17.8151 37.0519 15.2186 36.9764 12.6648 36.5659C12.1728 36.4841 11.5782 36.3054 11.0855 36.1894C10.8858 36.1424 10.597 36.0286 10.4084 35.992C10.3559 36.3432 10.4056 37.2415 10.6499 37.5352C11.0829 38.0558 12.381 38.2288 13.0266 38.3241C13.679 38.4201 14.4123 38.4533 15.0619 38.491C16.2303 38.5654 17.4013 38.588 18.5717 38.5593C18.9892 38.5468 19.4411 38.4996 19.8585 38.482C20.985 38.4345 23.7488 38.3429 24.45 37.4126ZM29.6267 19.438C29.2348 19.62 26.3651 22.4016 26.1728 22.7696L26.1735 22.8141C27.2763 22.6685 28.2797 22.5307 29.3827 22.3576C30.1923 22.1873 32.803 21.7101 33.2402 21.0284C33.2858 20.9576 33.326 20.882 33.3667 20.8083C33.3016 20.7337 33.1717 20.5827 33.095 20.5306C32.1789 19.9095 30.6922 19.6217 29.6267 19.438ZM23.0074 23.0507C23.643 23.0448 23.6491 23.1207 24.1058 22.6501C25.4521 21.2631 26.775 19.8618 28.2041 18.5578C28.4186 18.3623 28.6572 18.1824 28.877 17.9909L30.6405 16.4374C31.3502 15.816 32.0826 15.2173 32.7896 14.593C33.3455 14.1022 34.0437 13.6157 34.5451 13.0779C35.4395 12.1187 34.8234 10.58 33.4371 10.6159C33.3952 10.6171 33.3535 10.6194 33.3119 10.623C33.0401 10.6593 32.7316 10.7039 32.5188 10.8954C31.8608 11.4878 31.2971 12.1848 30.7058 12.8301L26.6921 17.2901L23.4186 20.9072C23.1858 21.1609 22.9536 21.4006 22.7271 21.6616C22.2911 22.1643 21.7715 22.6084 21.4256 23.1849C21.939 23.0933 22.4862 23.0615 23.0074 23.0507Z" fill="#1E5A81"/>
<path d="M12.4062 24.6544C12.5406 24.6422 12.9412 24.65 13.0817 24.6556C13.6468 24.678 14.8885 24.6166 15.3928 24.7222L15.4395 24.7785C14.9527 24.8028 14.16 24.7407 13.6539 24.7263C13.3512 24.7178 12.6668 24.6929 12.4062 24.6544Z" fill="#1E5A81"/>
<path d="M19.0361 24.7724C19.3963 24.5953 20.1373 24.6589 20.5537 24.6467C20.8317 24.6384 21.2873 24.6282 21.5581 24.6562C20.8653 24.7232 19.7474 24.7539 19.0361 24.7724Z" fill="#1E5A81"/>
<path d="M16.7617 2.66602C16.6606 2.3137 16.5848 2.19499 16.414 1.87553C16.181 1.43972 15.5839 0.906979 15.8517 0.390006C15.9354 0.228531 16.1996 0.068609 16.3596 0.016174C16.4858 -0.0251915 16.8293 0.017027 16.9313 0.0947156C17.5972 0.601498 18.2093 1.81592 18.3867 2.60501C18.5998 3.55269 18.5484 4.55611 18.1852 5.42892C17.6927 6.6123 16.7661 7.46037 16.6761 8.79975C16.6274 9.52485 16.7045 9.83938 16.9911 10.4683C17.2397 11.0139 18.0687 11.7106 17.6682 12.2368C17.5282 12.4207 17.425 12.5211 17.1895 12.571C16.9811 12.6153 16.7177 12.5281 16.5574 12.3942C15.8528 11.8057 15.2661 10.6458 15.1603 9.74346C15.0467 8.77445 15.1594 7.78052 15.6102 6.91117C15.8537 6.44158 16.1537 6.02809 16.3902 5.55819C16.5172 5.3059 16.7367 4.90567 16.7833 4.63919C16.9908 4.18611 16.9512 3.133 16.7617 2.66602Z" fill="#1E5A81"/>
<path d="M9.64004 11.005C9.80657 10.461 9.97127 10.2427 10.28 9.77486C11.0579 8.59612 11.5927 7.58812 10.8455 6.22413C10.6206 5.81349 10.1005 5.28705 10.246 4.86669C10.3092 4.68413 10.4335 4.54109 10.6095 4.4591C10.761 4.38884 10.9343 4.38175 11.0911 4.43939C11.6419 4.64732 12.1149 5.57063 12.3314 6.07285C12.7232 6.99195 12.7075 8.20954 12.2646 9.10999C11.5982 10.465 10.3778 11.4473 11.0598 13.1305C11.2194 13.5245 12.0551 14.4287 11.8254 14.779C10.994 16.0473 9.88885 14.0747 9.65091 13.3404C9.54027 12.9987 9.51338 12.7769 9.49089 12.5241C9.4363 11.9382 9.49455 11.5586 9.64004 11.005Z" fill="#1E5A81"/>
<path d="M21.7135 4.67103C22.0549 4.35689 22.4589 4.25767 22.8132 4.63855C23.6167 5.50224 24.0271 6.53033 23.9723 7.71485C23.954 8.25065 23.772 8.94038 23.5149 9.38918C22.9962 10.2939 22.3125 10.9583 22.2862 12.0875C22.2653 12.4935 22.3323 12.8288 22.4867 13.2021C22.6753 13.6581 23.1566 14.0831 23.239 14.566C23.2948 14.8937 22.8371 15.1362 22.5793 15.2129C21.8717 14.9922 21.6571 14.6025 21.3109 13.9438C20.8346 13.0227 20.7383 11.9516 21.0428 10.9604C21.2187 10.4061 21.4101 10.1755 21.7166 9.69811C22.0126 9.23713 22.2416 8.84948 22.4263 8.33078C22.4302 8.29771 22.472 8.14432 22.4838 8.10423C22.6124 7.66876 22.6174 6.85668 22.3774 6.45928C22.3575 6.24457 21.9004 5.66085 21.7539 5.46186C21.5887 5.16122 21.5041 4.98306 21.7135 4.67103Z" fill="#1E5A81"/>
</svg>
