<svg width="27" height="40" viewBox="0 0 27 40" fill="none" xmlns="http://www.w3.org/2000/svg">
<path d="M13.2094 0.0267997C13.2292 0.024307 13.2492 0.0221416 13.2691 0.0203103C15.779 -0.212583 17.574 1.58773 18.1391 3.86337C18.3393 4.66964 18.4503 4.571 18.2079 5.45277C17.9345 6.44708 17.6629 6.99442 17.0104 7.7805C18.0961 7.72218 19.2765 7.77153 20.3713 7.75678C21.5103 7.74145 22.6965 7.72164 23.8204 7.90293C24.3641 7.99062 24.9692 8.0532 25.5073 8.28388C26.2834 8.61661 26.5653 10.0539 26.7334 10.8033C26.9125 12.4925 27.234 16.1767 26.5673 17.6988C26.296 17.9296 25.9593 18.0697 25.6043 18.0995C25.2095 18.1355 24.7623 18.021 24.3722 17.9773C22.619 17.7813 20.3674 17.1674 19.899 19.556C19.7455 20.339 19.7702 22.1824 20.2887 22.8263C21.7473 24.6378 24.3088 22.8956 26.2237 23.2915C27.1572 24.0078 26.8366 26.4882 26.8596 27.5914C26.8896 29.0321 27.1339 30.7936 25.945 31.8712C24.2767 33.3835 21.5324 33.1008 19.4477 33.003C18.6561 32.9579 17.8633 32.9394 17.0705 32.9472C17.6794 34.0695 17.9807 34.818 17.9689 36.1287C17.9537 37.8114 16.6336 39.1225 15.139 39.6832C14.6118 39.881 14.0708 40.0257 13.5159 39.9962C12.1111 39.9133 11.1399 39.6335 10.1213 38.5884C9.37743 37.8249 8.97892 36.6554 8.98593 35.5996C8.9909 34.8489 9.53518 33.4603 10.0721 32.9486C8.09199 32.8946 6.09565 33.0635 4.1265 32.9486C3.42506 32.9077 1.59317 32.5631 1.08474 32.0594C0.220468 31.2032 0.0719713 29.3345 0.015325 28.1062C-0.0278443 27.1699 -0.0153986 24.1139 0.541641 23.3006C0.820499 22.8934 3.08176 23.4874 3.66615 23.5982C3.91151 23.645 4.16036 23.6712 4.41006 23.6765C5.07082 23.691 5.97204 23.4127 6.38471 22.9326C7.39318 21.7592 7.20553 19.4507 6.14063 18.385C4.98551 17.2291 4.01947 17.5256 2.62852 17.9603C2.19199 18.0967 1.81272 18.2928 1.34685 18.2896C-0.113863 18.2504 0.0500312 15.9002 0.0383677 14.918C0.0204101 14.077 0.0229702 13.2356 0.0460484 12.3948C0.0899644 11.1742 0.348802 8.47892 1.81659 8.03482C2.42107 7.88689 3.29893 7.75649 3.91464 7.77331C5.94626 7.82875 8.06877 7.69053 10.0892 7.77594C8.20963 5.45956 8.49389 2.35977 11.1988 0.796724C11.8827 0.40153 12.402 0.122885 13.2094 0.0267997ZM1.30023 23.9444C1.27488 25.3828 0.95086 30.188 1.80777 31.0994C2.28783 31.6099 3.42723 31.6539 4.08575 31.6641C4.81454 31.6757 5.54351 31.6652 6.27167 31.6326C7.59146 31.5746 9.74071 31.2193 10.8109 32.0424C11.3022 32.4203 10.8435 33.6036 10.7201 34.0905C10.4732 35.0698 9.88658 36.9391 10.7092 37.7758C12.1165 39.2075 14.6443 39.19 16.1286 37.8676C17.0033 37.0885 16.814 36.2649 16.5541 35.223C16.3836 34.5389 15.5944 32.8401 16.2412 32.2029C18.754 30.4824 22.474 32.6253 25.0609 31.1487C25.5251 30.8837 25.5699 29.1742 25.6266 28.682C25.7994 27.1844 25.4388 25.4333 25.5421 23.976C24.0005 24.7753 23.4998 25.3693 21.658 24.7707C19.3322 24.0148 18.1208 21.6315 18.8604 19.3223C19.604 17.0004 22.0191 15.8444 24.2853 16.6961C24.489 16.7727 24.7095 16.8312 24.8987 16.9432C25.1142 17.0734 25.3139 17.2564 25.5407 17.37C25.5358 16.9033 25.5852 16.3901 25.6055 15.9168C25.6395 15.0546 25.6689 14.1922 25.6936 13.3297C25.7238 12.3284 25.7846 10.4277 24.9667 9.66536C24.1204 8.87658 22.1151 9.05274 21.0281 9.03763C20.5844 9.03667 19.1519 9.08756 18.7892 9.15953C18.6961 9.09997 17.1759 9.07988 17.0637 9.11227C15.9639 8.86506 16.0449 7.87547 16.2847 6.99666C16.628 5.73849 17.3408 4.13348 16.6636 2.84291C16.2509 2.05641 15.2261 1.58574 14.4036 1.40364C13.2852 1.15483 12.5463 1.32755 11.5954 1.90692C10.9321 2.31436 10.457 2.96769 10.2737 3.72422C9.85987 5.4692 11.3384 7.07354 11.1296 8.06618C11.0488 8.45004 10.6733 8.75945 10.3534 8.95588C10.1588 9.0754 9.91417 9.10285 9.69235 9.13695C7.67556 9.44678 3.81091 8.55057 2.12319 9.43654C1.82939 9.59076 1.57671 9.91584 1.49382 10.2365C1.29479 11.0067 1.28793 11.8736 1.27499 12.665C1.24885 14.2633 1.36154 15.9078 1.27886 17.4922C2.6697 16.7051 3.44774 16.1131 5.10567 16.549C7.2556 17.1143 8.71262 19.4628 8.15291 21.6102C7.55554 23.9019 5.26327 25.5063 2.92256 24.7543C2.44546 24.601 1.67005 24.2725 1.30023 23.9444Z" fill="#1E5A81"/>
</svg>
