<svg width="79" height="79" viewBox="0 0 79 79" fill="none" xmlns="http://www.w3.org/2000/svg">
<g filter="url(#filter0_d_327_1656)">
<rect x="7.22363" y="6.64551" width="64" height="64" rx="32" fill="#E16D05" shape-rendering="crispEdges"/>
<rect x="9.0295" y="8.45138" width="60.3883" height="60.3883" rx="30.1941" stroke="white" stroke-width="3.61174" shape-rendering="crispEdges"/>
<path d="M29.3831 25.606C29.6932 25.4772 29.9872 25.2528 30.3027 25.116C31.3869 24.6461 32.4029 24.0962 33.4901 23.6295C34.0223 23.4011 34.5393 23.2323 35.1239 23.0528C35.5232 22.9303 36.2619 22.8131 36.6846 22.6736C37.3066 22.0109 37.3394 21.1034 38.3602 20.7469C40.1523 20.1212 41.0619 21.3694 41.6616 22.7229C41.9783 22.7825 42.2932 22.7822 42.6494 22.8625C44.2764 23.2296 45.6689 23.9147 47.1484 24.6617C47.7889 24.9851 48.2515 25.0782 48.8226 25.5518C50.1667 25.0323 51.6275 24.7345 52.4659 26.2707C53.0139 27.2747 52.7406 28.0565 52.4288 29.0402C52.793 30.0046 53.6477 31.2318 53.9879 32.1636C54.3652 33.2887 54.8383 34.4104 55.0635 35.5776C55.1549 36.0516 55.1947 36.2781 55.6747 36.4677C56.0689 36.6236 56.3895 36.7262 56.6721 37.0672C57.0885 37.5696 57.3528 38.2256 57.3092 38.8868C57.2519 39.5454 56.8184 40.4055 56.2391 40.7647C55.8983 40.9682 55.5301 41.0566 55.216 41.3214L55.201 41.3342C55.0028 42.4716 54.7507 43.1883 54.364 44.2639C54.1754 44.7887 54.0616 45.2257 53.8104 45.7455C53.4333 46.5258 52.7083 47.6776 52.4541 48.4694C52.575 48.8548 52.6812 48.9773 52.7689 49.4206C52.6738 49.6354 52.6667 50.3401 52.7541 50.5498C52.5716 51.4584 51.568 52.321 50.6513 52.3588C49.8867 52.3903 49.5177 52.1791 48.8348 51.9337C47.3661 52.7678 45.6083 53.5374 44.0256 54.1408C43.3377 54.4031 42.3288 54.5209 41.6999 54.8591C41.2612 55.5797 40.8629 56.2919 40.0253 56.5687C38.712 57.002 37.5468 56.415 36.9909 55.1625C36.7194 54.4986 35.7922 54.5469 35.1235 54.3592C33.0966 53.7902 31.3788 52.8202 29.4881 51.9368C28.272 52.5151 26.8004 52.6187 25.9577 51.2983C25.4182 50.4531 25.717 49.3105 25.9524 48.405C25.5093 47.3696 24.8726 46.319 24.3971 45.3096C23.9057 44.2665 23.3717 42.4114 23.2267 41.2539C23.0989 41.2108 22.9764 41.1581 22.8544 41.1009C22.1811 40.7855 21.5071 40.3739 21.2489 39.633C21.1125 39.2412 21.1176 38.8164 21.1611 38.4089C21.3781 36.3735 22.8679 36.8581 23.2027 36.1799C23.3486 35.8843 23.3799 35.3958 23.4592 35.0669C23.6171 34.392 23.8108 33.7259 24.0397 33.0716C24.1798 32.6759 24.3296 32.2983 24.5278 31.9282C25.016 31.0169 25.4904 30.0717 25.9323 29.1358C25.8112 28.1562 25.4154 27.2522 25.9499 26.2103C26.201 25.7308 26.6335 25.3718 27.151 25.2133C28.0033 24.9455 28.6521 25.2233 29.3831 25.606ZM39.164 41.9674C40.9516 41.9917 42.4165 40.5546 42.4262 38.7669C42.436 36.9792 40.9869 35.5261 39.1992 35.531C37.432 35.5357 35.9992 36.9646 35.9896 38.7317C35.98 40.4989 37.397 41.9433 39.164 41.9674ZM42.7272 30.1544C43.6863 29.653 45.1995 28.6745 46.1674 28.4138C46.6964 28.2098 47.6266 28.0632 47.8951 27.6615C48.0051 26.9069 44.4622 25.2351 43.7594 24.9916C43.124 24.7714 41.625 24.7471 40.9159 24.6979C40.828 25.0655 42.1192 27.0906 42.2966 27.732C42.5178 28.5315 42.7253 29.3048 42.7272 30.1544ZM29.8012 40.3504C30.2994 40.465 32.0355 40.7647 32.4388 40.4729C32.8372 40.1848 34.0968 39.2557 34.1945 38.8363C34.321 38.2938 32.4922 36.9512 31.9519 36.9463C31.7881 36.9447 31.3556 36.9563 31.1974 36.9829C29.6572 37.105 28.5904 37.3742 27.231 38.1754C26.9981 38.3127 26.6449 38.5111 26.4717 38.7102L26.4445 38.8097C26.7752 39.2649 29.1602 40.1931 29.8012 40.3504ZM35.4164 47.543L35.3835 47.5702C34.3608 48.4079 32.9178 49.0484 31.6517 49.3954C31.3457 49.4793 30.67 49.5608 30.5472 49.854C30.5982 50.6378 32.791 51.539 33.4416 51.9308C34.7592 52.4348 36.0053 52.7763 37.443 52.7073C37.3112 52.0341 36.679 51.0713 36.3467 50.3913C36.0327 49.7489 35.7833 48.0021 35.4785 47.5772L35.4164 47.543ZM35.4537 35.2047C35.6113 34.986 35.8181 34.6438 35.7071 34.3789C35.5522 34.0097 35.5469 32.9981 35.4182 32.7236C34.7362 31.2705 31.5678 29.8776 30.2422 29.8195C30.1763 30.0244 30.6497 31.4505 30.7451 31.7606C31.1444 33.0589 32.021 34.3435 33.192 35.0515C33.3247 35.1317 33.9416 35.1644 34.1128 35.2096C34.5593 35.2923 35.0664 35.5457 35.4537 35.2047ZM40.8906 52.7778C41.7972 52.7874 44.3151 52.3655 45.077 51.8634C46.136 51.3164 47.4432 50.8877 47.8595 49.7711C47.4521 49.5583 46.8539 49.3862 46.4052 49.2551C45.2078 48.9053 44.1719 48.3457 43.1587 47.6287C43.0529 47.5538 42.9442 47.4826 42.824 47.4302C42.7046 48.3332 42.2899 49.9975 41.8909 50.8092C41.5316 51.5401 41.1793 51.9532 40.8906 52.7778ZM43.123 42.1794C42.2638 42.8335 42.7318 43.1794 42.8517 44.085C42.9067 44.4995 42.9539 44.8267 43.2408 45.1658C44.3742 46.4766 46.1761 47.3282 47.8348 47.7286C48.0225 47.7587 47.9828 47.7833 48.103 47.6976C48.3324 47.069 47.3541 45.1484 47.0842 44.5242C46.7651 43.7864 45.9248 42.8034 45.1644 42.5335C44.7086 42.3717 43.6426 42.2332 43.123 42.1794ZM41.0525 45.8812C40.8843 45.4988 39.9146 44.1033 39.5564 43.7719C39.516 43.7345 39.2522 43.7552 39.1713 43.7637C38.7164 43.8271 38.7325 43.8952 38.4563 44.2369C37.6291 45.26 37.274 45.9557 37.4986 47.2973C37.6743 48.3464 38.2191 51.0664 39.3323 51.518C40.5718 49.2205 40.85 48.4977 41.0525 45.8812ZM30.2017 47.7462C30.4044 47.7007 30.6752 47.6476 30.871 47.5951C31.9073 47.4894 34.9096 46.0821 35.402 44.876C35.5785 44.4437 35.6063 43.1873 35.7228 42.6749C35.7455 42.4469 35.3357 42.1546 35.0962 42.1616C34.5869 42.2391 33.3599 42.3724 32.9796 42.6006C32.7465 42.7405 31.7619 43.8077 31.5875 44.0421C30.8012 45.0987 30.5881 46.5184 30.2017 47.7462ZM50.5531 28.0736C51.2787 27.588 51.091 27.0383 50.2896 27.0609C50.1412 27.1308 49.9411 27.2029 49.8961 27.3678C49.7658 27.8458 50.0979 28.1447 50.5531 28.0736ZM48.1155 29.8225C46.4405 30.1525 44.2468 31.0859 43.1174 32.4924C42.9015 32.7612 42.6707 34.3269 42.668 34.739C42.6672 34.8544 42.8219 35.1027 42.899 35.2145C43.4424 35.5939 44.0434 35.1625 44.6543 35.1398C44.8204 35.1337 45.1134 35.0611 45.2695 34.9956L45.2971 34.9842C45.5068 34.8954 46.469 34.0626 46.5852 33.8633C47.1509 32.8932 48.2057 30.9832 48.1553 29.8706L48.1155 29.8225ZM49.7809 50.2865C50.0441 50.4734 50.2776 50.6933 50.6195 50.5697C50.8027 50.3537 51.0264 50.1294 50.9983 49.8302C50.9563 49.3819 50.5046 49.3179 50.1535 49.3448C49.6909 49.6421 49.754 49.7825 49.7809 50.2865ZM51.7908 36.3145C52.0955 36.4976 52.7539 36.8992 53.0834 36.9816C53.5145 36.7567 53.0535 35.3657 52.9951 34.9682C52.8211 33.7826 51.4641 30.0368 50.1768 29.8794C49.9638 30.8649 49.6853 31.8437 49.3453 32.7929C49.0336 33.6633 48.3719 34.2584 47.9269 35.0657C49.1053 35.144 50.731 35.7939 51.7908 36.3145ZM27.5144 50.3792C27.6962 50.469 27.922 50.589 28.1093 50.6545C28.6464 50.2498 28.7415 49.2475 27.8712 49.3397C27.3978 49.6136 27.4476 49.8706 27.5144 50.3792ZM23.4399 38.2134C22.7396 38.5291 22.9733 39.2188 23.6423 39.2862C24.0798 38.8543 24.3514 38.1466 23.4399 38.2134ZM39.2347 23.6637C39.822 23.3034 39.9181 22.4759 39.2249 22.584C38.4195 22.6967 38.5939 23.4489 39.2347 23.6637ZM27.875 27.0616C27.1401 27.3885 27.4161 28.0019 28.0279 28.1211C28.6388 27.8268 28.7126 26.9963 27.875 27.0616ZM52.0792 38.8553C51.9237 38.6817 51.7906 38.5784 51.5976 38.4484C50.0255 37.3887 48.2818 36.8725 46.3866 36.9758C45.6196 37.1634 45.3526 37.6362 44.7458 38.0466C43.4552 38.9194 45.2891 39.959 45.9971 40.4426C46.5116 40.7941 48.3903 40.4577 48.9864 40.2708C49.1325 40.225 49.2776 40.1762 49.4217 40.1242C50.3972 39.8633 51.3596 39.0906 52.0792 38.8553ZM47.9762 42.416C48.1718 42.8369 48.5819 43.3948 48.8421 43.8031C49.3378 44.5809 49.5208 45.1589 49.7548 46.0263C49.8778 46.3292 50.0086 47.39 50.2664 47.5121C50.3525 47.5529 50.4534 47.5318 50.5367 47.4964C51.2956 47.1741 52.4214 44.454 52.716 43.6237C52.9426 42.9849 53.4281 41.1785 53.2372 40.5864C53.191 40.5465 53.1639 40.5145 53.1092 40.4917C52.5159 40.7629 52.0325 41.0775 51.4996 41.3381C50.5567 41.7994 48.9886 42.2839 47.9762 42.416ZM39.2186 53.7457C38.4299 53.9233 38.509 54.7088 39.2314 54.9602C39.8281 54.6953 39.9732 53.8269 39.2186 53.7457ZM30.5483 42.3863C29.265 42.217 28.0345 41.8524 26.8469 41.3286C26.4301 41.1447 25.4777 40.5768 25.0885 40.4934C25.2337 42.7243 26.0359 45.7168 27.7342 47.3047C27.8263 47.3908 27.9015 47.4519 28.0246 47.4859C28.3895 47.3428 28.5915 46.0335 28.6964 45.6394C28.9059 45.212 29.1516 44.4881 29.3764 44.1356C29.775 43.5109 30.1621 43.0483 30.5483 42.3863ZM54.5652 38.2135C54.4243 38.2766 54.3609 38.2748 54.3042 38.4306C54.2412 38.6051 54.2549 38.7981 54.3419 38.9619C54.4955 39.2464 54.7237 39.2943 55.0204 39.2132C55.6784 38.8383 55.443 38.1724 54.5652 38.2135ZM27.9253 29.9318C27.4065 30.2676 26.5425 31.8197 26.2306 32.412C25.9987 32.8521 25.5323 34.2009 25.4261 34.7C25.3482 35.0665 25.0899 36.5409 25.1516 36.8507C25.4112 37.1113 26.5305 36.3503 26.8706 36.2235C28.0108 35.6675 29.2606 35.2008 30.5258 35.0605C30.3755 34.7161 29.9699 34.2565 29.732 33.9361C29.1025 33.0779 28.67 32.0914 28.4653 31.0469C28.4003 30.7102 28.35 29.9187 27.9253 29.9318ZM39.2027 33.7512C39.5899 33.7087 39.7946 33.4837 40.028 33.1754C40.3188 32.7911 40.8102 32.1507 41.0036 31.7282C40.8844 30.0075 40.6607 28.3978 39.8372 26.848C39.7204 26.6282 39.4313 26.1013 39.249 25.9435C38.0894 27.3281 37.4006 29.5572 37.4247 31.3879C37.4329 32.0129 38.2514 33.049 38.6873 33.4992C38.7861 33.6013 39.0544 33.698 39.2027 33.7512ZM37.2256 24.7003C36.7026 24.731 35.4518 24.8035 34.9691 24.9564C33.5343 25.4113 31.9104 26.1736 30.7679 27.1577C30.5691 27.3289 30.5042 27.7472 30.7728 27.8576C31.3114 28.0789 32.1431 28.3406 32.7122 28.4656C33.5236 28.7511 34.9525 29.6029 35.5111 30.2392C35.6353 29.0864 36.1895 27.4668 36.6967 26.4126C36.8968 25.997 37.5583 25.1467 37.4767 24.7609C37.3753 24.6696 37.4004 24.698 37.2256 24.7003Z" fill="white"/>
</g>
<defs>
<filter id="filter0_d_327_1656" x="0.000157833" y="-8.91685e-05" width="78.4469" height="78.4469" filterUnits="userSpaceOnUse" color-interpolation-filters="sRGB">
<feFlood flood-opacity="0" result="BackgroundImageFix"/>
<feColorMatrix in="SourceAlpha" type="matrix" values="0 0 0 0 0 0 0 0 0 0 0 0 0 0 0 0 0 0 127 0" result="hardAlpha"/>
<feOffset dy="0.577878"/>
<feGaussianBlur stdDeviation="3.61174"/>
<feComposite in2="hardAlpha" operator="out"/>
<feColorMatrix type="matrix" values="0 0 0 0 0.67451 0 0 0 0 0.458824 0 0 0 0 0.211765 0 0 0 0.5 0"/>
<feBlend mode="normal" in2="BackgroundImageFix" result="effect1_dropShadow_327_1656"/>
<feBlend mode="normal" in="SourceGraphic" in2="effect1_dropShadow_327_1656" result="shape"/>
</filter>
</defs>
</svg>
