<svg width="79" height="79" viewBox="0 0 79 79" fill="none" xmlns="http://www.w3.org/2000/svg">
<g filter="url(#filter0_d_325_1900)">
<rect x="7.22363" y="6.64563" width="64" height="64" rx="32" fill="#E16D05" shape-rendering="crispEdges"/>
<rect x="9.0295" y="8.4515" width="60.3883" height="60.3883" rx="30.1941" stroke="white" stroke-width="3.61174" shape-rendering="crispEdges"/>
<path d="M51.1476 21.2964C52.6234 21.2758 53.947 21.5877 54.9907 22.7086C56.4873 24.316 56.5154 26.5419 56.0029 28.553C55.3405 31.152 53.8719 33.468 51.9187 35.2925C50.0573 37.0348 47.4056 38.5093 44.7912 38.4178C44.0197 39.4831 43.2576 40.5556 42.5053 41.6349C43.0678 42.263 43.7298 43.1352 44.263 43.8067L46.5056 46.5921L48.9295 49.5955C49.9224 50.8287 50.914 51.6952 50.6196 53.4429C50.4864 54.2415 50.0393 54.954 49.3779 55.4214C48.1209 56.3034 46.3612 56.1552 45.2619 55.0757C44.9387 54.7582 44.6533 54.2791 44.3949 53.8975C44.077 53.4289 43.7558 52.9625 43.4313 52.4983L39.1148 46.2987C38.5571 47.1301 37.9218 47.9953 37.3398 48.8134L35.1083 51.9688C34.6706 52.5794 34.2365 53.1925 33.8061 53.8084C33.5954 54.1093 33.2875 54.578 33.0615 54.8539C32.505 55.4918 31.7099 55.8926 30.8718 55.9684C28.4108 56.191 26.7284 53.6777 27.7559 51.4636C27.9729 50.996 28.4413 50.4913 28.7744 50.0797C29.3008 49.4315 29.8309 48.7866 30.3646 48.1447C31.5829 46.6609 32.8087 45.1831 34.0418 43.7115C34.6288 43.0066 35.1937 42.3038 35.7906 41.6046C34.9684 40.3744 34.0234 39.1602 33.1782 37.9365C31.2953 37.8251 29.7912 37.103 28.724 35.5608C28.3904 35.0786 27.973 34.5728 27.6149 34.1007L25.0409 30.7498L23.248 28.4262C22.9221 28.0066 22.5696 27.5894 22.2793 27.146C21.8779 26.5327 22.4318 25.6918 23.1679 25.7866C23.3399 25.809 23.5026 25.8777 23.6386 25.9855C23.8704 26.1673 24.7972 27.4318 25.0456 27.7585C25.196 27.9293 25.4317 28.2597 25.5757 28.4488L26.5525 29.7272L29.2647 33.2896C29.6977 33.8602 30.1319 34.4448 30.567 35.0071C31.049 35.6013 31.7913 35.9613 32.5289 36.1157C32.9542 36.2139 33.4215 36.1862 33.8365 36.3169C34.4093 36.4975 34.8044 37.2302 35.1406 37.7108C35.6556 38.4555 36.177 39.196 36.7043 39.932C39.2062 43.3908 41.5525 46.9075 44.0039 50.3879L45.5443 52.6172C45.7991 52.9893 46.0605 53.3856 46.3271 53.7478C46.5722 54.0808 46.977 54.2921 47.3901 54.3346C47.8002 54.3782 48.21 54.2513 48.5237 53.9837C48.8341 53.7238 48.9788 53.3996 49.0189 53.0075C49.085 52.3626 48.717 51.9854 48.3404 51.5287C48.1655 51.3167 47.9887 51.0899 47.8152 50.8728L45.3901 47.8724C43.2353 45.2139 41.0653 42.5679 38.88 39.9348C37.8582 38.7213 36.8069 37.525 35.765 36.3291C35.166 35.6415 35.2149 35.2473 35.3937 34.3978C35.5573 33.5997 35.4693 32.6928 35.07 31.9737C34.9254 31.7134 34.6346 31.395 34.441 31.1579L33.3958 29.8708C32.065 28.208 30.724 26.5534 29.3729 24.907C29.1256 24.6036 28.8678 24.2937 28.6287 23.984C28.2986 23.5566 27.7683 23.1439 27.8293 22.559C27.8554 22.3147 27.98 22.0915 28.1743 21.9411C28.3792 21.7804 28.6419 21.7126 28.8989 21.7542C29.1163 21.7893 29.2781 21.8759 29.4235 22.0364C29.7236 22.3675 30.0059 22.7391 30.2878 23.0867L32.1842 25.4505L35.0946 29.0906C35.7369 29.8991 36.4321 30.5922 36.827 31.5559C37.3297 32.7827 37.287 33.8544 37.0564 35.1269L39.1631 37.6209C39.6981 36.9797 40.347 36.2021 40.9071 35.6045C40.7155 35.0808 40.5924 34.5345 40.5408 33.9792C40.0313 28.8107 44.9958 22.5491 50.0258 21.4492C50.3928 21.3689 50.7738 21.3323 51.1476 21.2964ZM41.3857 40.2833C41.576 39.9641 41.8178 39.6426 42.0366 39.3392C42.4342 38.7951 43.387 37.3052 43.8219 36.9577C43.9974 36.8175 44.2094 36.742 44.4297 36.7089C44.7196 36.6653 45.0181 36.6864 45.3105 36.6765C45.5901 36.6672 45.88 36.6216 46.1541 36.564C48.6314 36.0437 50.7921 34.2613 52.2832 32.2767C53.602 30.5212 54.8145 27.9446 54.486 25.6942C54.3631 24.8522 54.0174 24.067 53.3209 23.549C52.8047 23.1649 52.114 23.0053 51.4778 23.0232C49.1526 23.1279 46.959 24.587 45.4179 26.2637C43.6178 28.2536 42.1693 30.8667 42.2607 33.6209C42.2732 33.9988 42.3368 34.3671 42.4412 34.7257C42.5867 35.2248 42.8162 35.7307 42.5541 36.238C42.3886 36.5582 42.1203 36.8289 41.8829 37.0998L40.7994 38.3354C40.653 38.5043 40.4046 38.7747 40.2774 38.9481C40.5901 39.3242 41.067 39.9408 41.3857 40.2833ZM30.3899 54.3071C31.459 54.4348 31.8874 53.6342 32.4106 52.8886L33.3035 51.6208C34.9114 49.3687 36.5056 47.1068 38.0858 44.8351C37.6568 44.2383 37.2311 43.6389 36.8088 43.0371C36.0021 44.0115 35.1899 44.9811 34.3721 45.9459L31.7344 49.1209C31.1979 49.762 30.6664 50.4077 30.1402 51.0576C29.6646 51.6429 29.0442 52.1967 29.1228 53.0045C29.1593 53.3948 29.3547 53.7528 29.6631 53.9947C29.8746 54.1591 30.1249 54.2668 30.3899 54.3071Z" fill="white"/>
<path d="M25.5399 23.592C26.3017 23.5377 26.4866 23.971 26.9007 24.501L27.9187 25.8006L30.8704 29.5494C31.4413 30.2728 32.0192 30.9991 32.584 31.7272C32.6705 31.865 32.8159 32.0178 32.8335 32.1843C32.8939 32.7563 32.6218 33.1024 32.0995 33.2749C31.7774 33.2999 31.4404 33.2158 31.2314 32.9521C30.9491 32.5959 30.6705 32.2366 30.3894 31.8794L28.6862 29.7257C27.4815 28.205 26.2658 26.6892 25.0626 25.1673C24.9956 25.064 24.8464 24.8965 24.8196 24.7769C24.6882 24.1902 24.9463 23.7279 25.5399 23.592Z" fill="white"/>
</g>
<defs>
<filter id="filter0_d_325_1900" x="0.000157833" y="3.29018e-05" width="78.4469" height="78.4469" filterUnits="userSpaceOnUse" color-interpolation-filters="sRGB">
<feFlood flood-opacity="0" result="BackgroundImageFix"/>
<feColorMatrix in="SourceAlpha" type="matrix" values="0 0 0 0 0 0 0 0 0 0 0 0 0 0 0 0 0 0 127 0" result="hardAlpha"/>
<feOffset dy="0.577878"/>
<feGaussianBlur stdDeviation="3.61174"/>
<feComposite in2="hardAlpha" operator="out"/>
<feColorMatrix type="matrix" values="0 0 0 0 0.67451 0 0 0 0 0.458824 0 0 0 0 0.211765 0 0 0 0.5 0"/>
<feBlend mode="normal" in2="BackgroundImageFix" result="effect1_dropShadow_325_1900"/>
<feBlend mode="normal" in="SourceGraphic" in2="effect1_dropShadow_325_1900" result="shape"/>
</filter>
</defs>
</svg>
