<svg width="79" height="79" viewBox="0 0 79 79" fill="none" xmlns="http://www.w3.org/2000/svg">
<g filter="url(#filter0_d_768_5132)">
<rect x="7.22363" y="6.64551" width="64" height="64" rx="32" fill="#E00000" shape-rendering="crispEdges"/>
<rect x="9.0295" y="8.45138" width="60.3883" height="60.3883" rx="30.1941" stroke="white" stroke-width="3.61174" shape-rendering="crispEdges"/>
<path d="M54.9698 29.728L52.2008 27.0462C51.8709 26.728 51.5009 26.5584 51.1333 26.5584C50.7656 26.5584 50.4192 26.721 50.1129 27.0297L45.0957 32.0775L43.5639 35.1953C43.3329 35.6666 42.5835 36.3995 42.2065 36.5268L40.7572 37.0146L37.022 33.211L39.5883 30.5787C40.3094 29.8387 40.3636 27.8521 39.6802 27.1499L37.3755 24.7838C36.8311 24.2253 35.9968 23.8789 35.198 23.8789C34.5852 23.8789 34.0479 24.0839 33.645 24.4704L30.8689 27.1381C30.5319 26.9166 30.1713 26.7964 29.832 26.7964C29.4667 26.7964 29.1344 26.9331 28.8776 27.1946L26.7873 29.3203C26.25 29.867 26.3183 30.7013 26.6364 31.3611L23.8062 34.2314C23.0426 35.0044 22.7575 36.5857 23.5493 37.3869L26.66 40.5353C27.0017 40.8818 27.4589 41.0632 27.9844 41.0609C28.6961 41.0609 29.4809 40.7144 29.9734 40.1889L32.3206 37.8535L35.9167 41.5581L29.0755 48.4087C27.9632 49.5234 28.2554 51.4228 29.2122 52.4291C29.7825 53.0253 30.7086 53.4118 31.5712 53.4118C32.2263 53.4118 32.7966 53.1926 33.2184 52.7826L40.1562 46.0074L46.7311 52.6742C47.2001 53.1502 47.8222 53.4023 48.5245 53.4023C49.4507 53.4023 50.4828 52.9522 51.1498 52.2594C52.5237 50.8337 52.4482 48.8635 51.515 47.9162L44.9496 41.2565L45.3902 39.76L46.6934 38.4238L49.9809 36.5197L50.0021 36.5032C51.1757 35.4969 52.2526 34.4152 53.2943 33.3666C53.8434 32.8128 54.4136 32.2401 54.9981 31.6769C55.2385 31.4459 55.3704 31.116 55.3704 30.7413C55.3704 30.3454 55.2196 29.9636 54.9674 29.7186L54.9698 29.728ZM28.9765 38.8221C28.7197 39.0742 28.3898 39.3217 28.1894 39.324C27.9915 39.324 27.5932 39.0931 27.4495 38.9493L25.0175 36.5244C24.6993 36.2086 24.836 35.4686 25.2225 35.2141L34.59 25.842C34.8303 25.6016 35.7376 25.6346 35.9474 25.7689L37.8774 27.6518C38.6127 28.3682 38.6103 29.2402 37.868 29.9801L28.9765 38.8221ZM32.3488 51.3686C31.6913 52.0261 30.7086 51.6844 30.3316 51.1447C29.8391 50.4307 30.0441 49.752 30.6497 49.1558L37.2765 42.628L39.1618 44.5793L32.3488 51.3686ZM50.1199 48.8588C50.8858 49.6365 50.3061 50.8761 49.7217 51.2626C48.7201 51.9271 47.9165 51.6396 47.0705 50.7583L33.3009 36.4136L35.6363 34.1702L50.1176 48.8588H50.1199ZM49.0689 35.1269C48.2441 35.9282 46.9692 36.1874 46.0265 36.9015C44.8129 37.8135 43.3706 39.1779 43.611 40.3162L41.7587 38.5134C42.4351 38.2966 42.9535 38.1363 43.3282 37.7451L44.9943 36.0154L46.4931 32.9895L51.1073 28.3541L53.6077 30.7295L49.0689 35.1246V35.1269Z" fill="white"/>
</g>
<defs>
<filter id="filter0_d_768_5132" x="0.000157833" y="-8.91685e-05" width="78.4469" height="78.4469" filterUnits="userSpaceOnUse" color-interpolation-filters="sRGB">
<feFlood flood-opacity="0" result="BackgroundImageFix"/>
<feColorMatrix in="SourceAlpha" type="matrix" values="0 0 0 0 0 0 0 0 0 0 0 0 0 0 0 0 0 0 127 0" result="hardAlpha"/>
<feOffset dy="0.577878"/>
<feGaussianBlur stdDeviation="3.61174"/>
<feComposite in2="hardAlpha" operator="out"/>
<feColorMatrix type="matrix" values="0 0 0 0 0.67451 0 0 0 0 0.458824 0 0 0 0 0.211765 0 0 0 0.5 0"/>
<feBlend mode="normal" in2="BackgroundImageFix" result="effect1_dropShadow_768_5132"/>
<feBlend mode="normal" in="SourceGraphic" in2="effect1_dropShadow_768_5132" result="shape"/>
</filter>
</defs>
</svg>
