<svg width="79" height="79" viewBox="0 0 79 79" fill="none" xmlns="http://www.w3.org/2000/svg">
<g filter="url(#filter0_d_768_5125)">
<rect x="7.22363" y="6.64551" width="64" height="64" rx="32" fill="#E00000" shape-rendering="crispEdges"/>
<rect x="9.0295" y="8.45138" width="60.3883" height="60.3883" rx="30.1941" stroke="white" stroke-width="3.61174" shape-rendering="crispEdges"/>
<path d="M23.6824 22.5234C25.0856 22.8047 27.1291 24.8069 28.3512 25.6516C28.8726 26.012 29.4323 26.4009 29.9548 26.7643C30.9359 27.4456 31.91 28.1371 32.8768 28.8386L34.0642 29.71C34.2249 29.8295 34.5807 30.1122 34.7402 30.1974C37.9119 29.1639 42.2001 31.4504 42.6422 34.8991C42.5867 35.1965 42.599 35.5994 42.6394 35.8999C42.6154 36.1535 42.5903 36.3035 42.5376 36.5532C42.8074 36.2683 43.5398 35.6541 43.669 35.362C44.192 34.1799 43.4839 32.5853 42.9855 31.4879C42.6367 30.7203 41.6739 29.693 42.1078 28.776C43.0686 27.4503 45.3391 27.3365 46.8151 27.2852C48.2223 27.2363 51.9496 27.3863 52.4684 29.001C52.4516 29.0781 52.3828 29.6586 52.3968 29.7108C52.3132 30.1825 51.6732 31.1307 51.4624 31.616C50.9718 32.7472 50.6038 34.0552 50.7148 35.2978C50.7802 35.9752 51.3892 36.5266 51.8291 36.9877C52.0673 37.2396 52.2918 37.5041 52.5012 37.7803C54.094 39.8811 54.9022 42.5894 54.343 45.1908C53.8757 47.3636 52.8462 49.4762 51.2235 51.0094C52.8002 51.0599 53.4007 51.8442 53.3355 53.3837C53.3334 53.4355 53.3301 53.4869 53.3252 53.5386C53.6828 53.5102 54.0493 53.505 54.4061 53.5286C54.6694 53.5459 54.9464 53.602 55.1527 53.7729C55.3666 53.9501 55.4147 54.2687 55.213 54.4751C54.9678 54.7293 54.6169 54.7295 54.2872 54.7355C53.1855 54.7422 52.0818 54.737 50.9804 54.736L44.9738 54.735C43.261 54.7352 41.5513 54.7613 39.843 54.7668C39.5944 54.7675 38.7253 54.6744 38.6208 54.5146C37.8095 53.2741 40.5684 53.52 40.8335 53.511C40.7483 51.8238 41.2976 51.0989 42.9909 51.0206C43.0236 51.0188 43.0564 51.0175 43.0892 51.0162C41.1187 49.2028 39.7451 46.6224 39.637 43.9222C39.5677 42.1923 39.9752 40.4767 40.8151 38.9629C39.6852 39.6384 38.2982 39.9751 37.0039 39.6489C35.5479 39.2818 34.3755 38.2133 33.6247 36.9462C33.3912 36.5521 33.1924 36.1237 33.0307 35.6956C32.7154 34.8608 32.097 32.7079 32.3108 31.8878C32.3557 31.7154 32.4415 31.5521 32.5997 31.4594C32.6856 31.409 32.7786 31.3875 32.8754 31.4182C33.0696 31.48 33.2022 31.7106 33.2832 31.8826C33.5992 32.5536 33.626 33.3334 33.7666 34.0517C34.1072 35.7911 35.0067 37.6737 36.7733 38.3271C37.642 38.6484 38.7799 38.6794 39.6294 38.2841C40.4333 37.9101 41.1023 37.2182 41.4024 36.38C41.6927 35.5689 41.5192 34.6805 41.1554 33.9223C40.6079 32.7814 39.5383 31.9618 38.3582 31.551C37.3774 31.2096 36.3373 31.1186 35.3047 31.1968C35.1106 31.3793 34.7691 31.7418 34.5644 31.8639C33.0458 31.0678 31.5221 29.6801 30.1204 28.654C29.3207 28.0685 23.271 23.8657 23.1233 23.4196C23.0799 23.2883 23.1216 23.1546 23.1854 23.0379C23.3011 22.8243 23.4729 22.6464 23.6824 22.5234ZM43.0722 29.2684C44.0087 30.8231 45.2136 33.4859 44.7727 35.3422C44.5052 36.4685 43.2035 37.4326 42.532 38.3277C40.4296 41.0612 40.2668 45.0067 42.0254 47.9597C42.4285 48.6367 44.0642 50.7133 44.8769 50.9774C45.2518 51.0992 46.9438 51.0464 47.4594 51.0441C47.6966 51.0444 49.1305 51.0772 49.2459 51.0113C53.6091 48.5167 54.7814 41.6332 51.2028 37.9903C50.9454 37.7285 50.7031 37.5221 50.4704 37.2427C48.8593 35.4721 49.5761 32.7114 50.5694 30.8216C50.8298 30.3262 51.1562 29.8033 51.3794 29.282C50.482 28.7054 48.8903 28.5091 47.8416 28.4829C47.4793 28.4738 47.0327 28.4462 46.6722 28.4849C45.1299 28.5898 44.4706 28.5585 43.0722 29.2684ZM42.0146 53.5223C43.303 53.572 44.5925 53.5911 45.8819 53.5803L49.6061 53.5635L50.9946 53.5542C51.2276 53.5539 52.1017 53.595 52.2543 53.4515C52.3531 53.1913 52.2504 52.6185 52.1516 52.362C51.1702 52.1409 49.3535 52.1915 48.295 52.1978C47.3113 52.2097 46.3181 52.2298 45.3351 52.229C44.4842 52.2285 43.6352 52.1719 42.7818 52.2161C41.708 52.2715 42.045 52.8373 42.0146 53.5223Z" fill="white"/>
<path d="M39.9565 35.2161C40.0933 35.2008 40.3 35.2663 40.4168 35.3405C40.516 35.4034 40.5746 35.5318 40.5979 35.6451C40.6516 35.9059 40.538 36.1711 40.3934 36.3845C39.9614 37.0218 39.4216 37.3817 38.6719 37.5348C38.4837 37.5007 38.192 37.4122 38.0899 37.2496C37.6998 36.6288 38.9009 36.3342 39.182 36.0593C39.4838 35.7641 39.6288 35.4503 39.9565 35.2161Z" fill="white"/>
<path d="M42.6429 34.8994C42.6767 35.1432 42.6923 35.663 42.6401 35.9002C42.5997 35.5997 42.5875 35.1968 42.6429 34.8994Z" fill="white"/>
<path d="M52.469 29.001C52.5256 29.2619 52.5096 29.4633 52.3974 29.7108C52.3834 29.6586 52.4522 29.0781 52.469 29.001Z" fill="white"/>
</g>
<defs>
<filter id="filter0_d_768_5125" x="0.000157833" y="-8.91685e-05" width="78.4469" height="78.4469" filterUnits="userSpaceOnUse" color-interpolation-filters="sRGB">
<feFlood flood-opacity="0" result="BackgroundImageFix"/>
<feColorMatrix in="SourceAlpha" type="matrix" values="0 0 0 0 0 0 0 0 0 0 0 0 0 0 0 0 0 0 127 0" result="hardAlpha"/>
<feOffset dy="0.577878"/>
<feGaussianBlur stdDeviation="3.61174"/>
<feComposite in2="hardAlpha" operator="out"/>
<feColorMatrix type="matrix" values="0 0 0 0 0.67451 0 0 0 0 0.458824 0 0 0 0 0.211765 0 0 0 0.5 0"/>
<feBlend mode="normal" in2="BackgroundImageFix" result="effect1_dropShadow_768_5125"/>
<feBlend mode="normal" in="SourceGraphic" in2="effect1_dropShadow_768_5125" result="shape"/>
</filter>
</defs>
</svg>
