<svg width="79" height="79" viewBox="0 0 79 79" fill="none" xmlns="http://www.w3.org/2000/svg">
<g filter="url(#filter0_d_768_5120)">
<rect x="7.22363" y="6.64551" width="64" height="64" rx="32" fill="#E00000" shape-rendering="crispEdges"/>
<rect x="9.0295" y="8.45138" width="60.3883" height="60.3883" rx="30.1941" stroke="white" stroke-width="3.61174" shape-rendering="crispEdges"/>
<path d="M51.1476 21.2959C52.6234 21.2753 53.947 21.5872 54.9907 22.7082C56.4873 24.3155 56.5154 26.5414 56.0029 28.5525C55.3405 31.1515 53.8719 33.4675 51.9187 35.292C50.0573 37.0344 47.4056 38.5088 44.7912 38.4173C44.0197 39.4827 43.2576 40.5551 42.5053 41.6344C43.0678 42.2625 43.7298 43.1348 44.263 43.8062L46.5056 46.5916L48.9295 49.595C49.9224 50.8283 50.914 51.6947 50.6196 53.4424C50.4864 54.241 50.0393 54.9535 49.3779 55.4209C48.1209 56.3029 46.3612 56.1547 45.2619 55.0752C44.9387 54.7577 44.6533 54.2786 44.3949 53.897C44.077 53.4284 43.7558 52.962 43.4313 52.4978L39.1148 46.2982C38.5571 47.1296 37.9218 47.9948 37.3398 48.8129L35.1083 51.9683C34.6706 52.579 34.2365 53.1921 33.8061 53.8079C33.5954 54.1088 33.2875 54.5775 33.0615 54.8534C32.505 55.4913 31.7099 55.8921 30.8718 55.9679C28.4108 56.1905 26.7284 53.6772 27.7559 51.4631C27.9729 50.9955 28.4413 50.4908 28.7744 50.0792C29.3008 49.4311 29.8309 48.7862 30.3646 48.1443C31.5829 46.6604 32.8087 45.1826 34.0418 43.7111C34.6288 43.0061 35.1937 42.3033 35.7906 41.6041C34.9684 40.3739 34.0234 39.1597 33.1782 37.936C31.2953 37.8246 29.7912 37.1025 28.724 35.5603C28.3904 35.0781 27.973 34.5723 27.6149 34.1002L25.0409 30.7493L23.248 28.4257C22.9221 28.0061 22.5696 27.5889 22.2793 27.1455C21.8779 26.5323 22.4318 25.6913 23.1679 25.7861C23.3399 25.8085 23.5026 25.8772 23.6386 25.985C23.8704 26.1668 24.7972 27.4313 25.0456 27.758C25.196 27.9288 25.4317 28.2592 25.5757 28.4483L26.5525 29.7267L29.2647 33.2891C29.6977 33.8597 30.1319 34.4444 30.567 35.0066C31.049 35.6009 31.7913 35.9608 32.5289 36.1152C32.9542 36.2134 33.4215 36.1857 33.8365 36.3165C34.4093 36.497 34.8044 37.2297 35.1406 37.7103C35.6556 38.455 36.177 39.1955 36.7043 39.9315C39.2062 43.3904 41.5525 46.907 44.0039 50.3874L45.5443 52.6168C45.7991 52.9888 46.0605 53.3851 46.3271 53.7473C46.5722 54.0803 46.977 54.2916 47.3901 54.3342C47.8002 54.3777 48.21 54.2508 48.5237 53.9832C48.8341 53.7233 48.9788 53.3991 49.0189 53.007C49.085 52.3621 48.717 51.9849 48.3404 51.5282C48.1655 51.3162 47.9887 51.0894 47.8152 50.8723L45.3901 47.8719C43.2353 45.2134 41.0653 42.5675 38.88 39.9343C37.8582 38.7208 36.8069 37.5245 35.765 36.3286C35.166 35.641 35.2149 35.2468 35.3937 34.3973C35.5573 33.5992 35.4693 32.6923 35.07 31.9732C34.9254 31.7129 34.6346 31.3945 34.441 31.1574L33.3958 29.8703C32.065 28.2075 30.724 26.5529 29.3729 24.9065C29.1256 24.6031 28.8678 24.2932 28.6287 23.9835C28.2986 23.5561 27.7683 23.1434 27.8293 22.5586C27.8554 22.3142 27.98 22.091 28.1743 21.9406C28.3792 21.7799 28.6419 21.7121 28.8989 21.7537C29.1163 21.7888 29.2781 21.8754 29.4235 22.0359C29.7236 22.367 30.0059 22.7386 30.2878 23.0862L32.1842 25.45L35.0946 29.0901C35.7369 29.8987 36.4321 30.5917 36.827 31.5554C37.3297 32.7822 37.287 33.8539 37.0564 35.1264L39.1631 37.6204C39.6981 36.9793 40.347 36.2016 40.9071 35.604C40.7155 35.0803 40.5924 34.534 40.5408 33.9788C40.0313 28.8102 44.9958 22.5486 50.0258 21.4487C50.3928 21.3684 50.7738 21.3318 51.1476 21.2959ZM41.3857 40.2828C41.576 39.9636 41.8178 39.6421 42.0366 39.3387C42.4342 38.7946 43.387 37.3048 43.8219 36.9572C43.9974 36.817 44.2094 36.7415 44.4297 36.7084C44.7196 36.6648 45.0181 36.6859 45.3105 36.6761C45.5901 36.6667 45.88 36.6211 46.1541 36.5635C48.6314 36.0432 50.7921 34.2609 52.2832 32.2762C53.602 30.5207 54.8145 27.9441 54.486 25.6938C54.3631 24.8518 54.0174 24.0666 53.3209 23.5485C52.8047 23.1644 52.114 23.0048 51.4778 23.0228C49.1526 23.1274 46.959 24.5865 45.4179 26.2633C43.6178 28.2531 42.1693 30.8663 42.2607 33.6204C42.2732 33.9983 42.3368 34.3667 42.4412 34.7252C42.5867 35.2243 42.8162 35.7303 42.5541 36.2375C42.3886 36.5577 42.1203 36.8284 41.8829 37.0993L40.7994 38.3349C40.653 38.5038 40.4046 38.7742 40.2774 38.9477C40.5901 39.3237 41.067 39.9403 41.3857 40.2828ZM30.3899 54.3066C31.459 54.4343 31.8874 53.6337 32.4106 52.8881L33.3035 51.6204C34.9114 49.3682 36.5056 47.1063 38.0858 44.8346C37.6568 44.2378 37.2311 43.6385 36.8088 43.0366C36.0021 44.011 35.1899 44.9806 34.3721 45.9454L31.7344 49.1204C31.1979 49.7615 30.6664 50.4072 30.1402 51.0571C29.6646 51.6424 29.0442 52.1962 29.1228 53.004C29.1593 53.3943 29.3547 53.7523 29.6631 53.9942C29.8746 54.1587 30.1249 54.2663 30.3899 54.3066Z" fill="white"/>
<path d="M25.5399 23.5915C26.3017 23.5372 26.4866 23.9705 26.9007 24.5005L27.9187 25.8001L30.8704 29.5489C31.4413 30.2723 32.0192 30.9986 32.584 31.7267C32.6705 31.8646 32.8159 32.0173 32.8335 32.1838C32.8939 32.7558 32.6218 33.1019 32.0995 33.2745C31.7774 33.2994 31.4404 33.2153 31.2314 32.9516C30.9491 32.5955 30.6705 32.2361 30.3894 31.879L28.6862 29.7252C27.4815 28.2045 26.2658 26.6887 25.0626 25.1668C24.9956 25.0635 24.8464 24.896 24.8196 24.7765C24.6882 24.1897 24.9463 23.7274 25.5399 23.5915Z" fill="white"/>
</g>
<defs>
<filter id="filter0_d_768_5120" x="0.000157833" y="-8.91685e-05" width="78.4469" height="78.4469" filterUnits="userSpaceOnUse" color-interpolation-filters="sRGB">
<feFlood flood-opacity="0" result="BackgroundImageFix"/>
<feColorMatrix in="SourceAlpha" type="matrix" values="0 0 0 0 0 0 0 0 0 0 0 0 0 0 0 0 0 0 127 0" result="hardAlpha"/>
<feOffset dy="0.577878"/>
<feGaussianBlur stdDeviation="3.61174"/>
<feComposite in2="hardAlpha" operator="out"/>
<feColorMatrix type="matrix" values="0 0 0 0 0.67451 0 0 0 0 0.458824 0 0 0 0 0.211765 0 0 0 0.5 0"/>
<feBlend mode="normal" in2="BackgroundImageFix" result="effect1_dropShadow_768_5120"/>
<feBlend mode="normal" in="SourceGraphic" in2="effect1_dropShadow_768_5120" result="shape"/>
</filter>
</defs>
</svg>
