<svg width="84" height="84" viewBox="0 0 84 84" fill="none" xmlns="http://www.w3.org/2000/svg">
<g filter="url(#filter0_d_768_5085)">
<rect x="9.79102" y="9.00781" width="64" height="64" rx="32" fill="#E00000" shape-rendering="crispEdges"/>
<rect x="11.5969" y="10.8137" width="60.3883" height="60.3883" rx="30.1941" stroke="white" stroke-width="3.61174" shape-rendering="crispEdges"/>
<path d="M44.7511 61.2995C43.0103 62.3016 40.5565 62.2278 38.745 61.1903L34.6788 58.8586L25.6857 53.7196C24.2019 52.7207 23.3379 51.1148 23.2158 49.3226V32.907C23.325 31.0248 24.3367 29.1009 25.9523 28.1727L38.5748 20.914C40.4216 19.8541 42.7887 19.6325 44.6773 20.7181L57.6177 28.1599C59.2911 29.1234 60.2611 31.0313 60.3671 32.9744L60.3542 49.1749C60.3542 51.0377 59.3618 52.7304 57.8586 53.7646L44.7479 61.2963L44.7511 61.2995ZM40.3509 38.5726C41.3016 38.9837 42.4258 39.048 43.3411 38.518L57.4218 30.376C57.136 30.0324 56.8051 29.8397 56.4165 29.6181L44.2919 22.6355C42.9268 21.8486 41.2181 21.5949 39.7985 22.4043L27.1567 29.6245C26.7745 29.8429 26.4598 30.0613 26.1707 30.3857L35.7034 35.8683L40.3509 38.5694V38.5726ZM39.2107 59.2793C39.7696 59.5973 40.2738 59.8863 40.868 60.0245V43.3133C40.868 41.9675 40.3574 40.7246 39.1947 40.0565L25.2714 32.043C25.098 32.6275 25.0498 33.1479 25.0498 33.7517L25.0755 49.2777C25.0755 50.7134 26.0101 51.7636 27.176 52.4253L35.8608 57.3586L39.2139 59.2793H39.2107ZM51.1009 55.4958L56.8662 52.1715C57.8426 51.6094 58.4913 50.4468 58.4913 49.2873L58.5138 33.363C58.5138 32.8909 58.4303 32.4991 58.3051 32.0205L44.0734 40.2813C43.1709 41.0297 42.7052 42.1217 42.7309 43.3101V60.0534C43.1613 59.9731 43.5371 59.8478 43.9096 59.6326L51.1009 55.4926V55.4958Z" fill="#FCF7F6"/>
<path d="M54.5797 50.4208C54.2328 50.6135 53.8956 50.6071 53.5744 50.4786C53.3046 50.3726 53.0669 50.1028 52.9641 49.7399C52.6687 48.68 53.2211 47.498 54.2392 47.0516C54.5508 46.9135 54.9234 46.9327 55.2285 47.1126C56.176 47.6747 55.9222 49.6692 54.5829 50.4208H54.5797Z" fill="#FCF7F6"/>
<path d="M47.0443 45.0895C46.7071 45.2405 46.3409 45.2276 46.0358 45.0477C45.8335 44.9289 45.6054 44.6495 45.5316 44.3283C45.2971 43.3134 45.8174 42.2245 46.7521 41.7653C47.3912 41.4537 48.1139 41.7717 48.3002 42.4686C48.5764 43.4964 48.04 44.6431 47.0443 45.0895Z" fill="#FCF7F6"/>
<path d="M50.8561 47.6717C50.5092 47.8451 50.1559 47.8484 49.8347 47.6974C49.6066 47.5914 49.3529 47.3248 49.2662 46.994C49.0125 46.0273 49.4782 44.9449 50.3518 44.4631C50.7276 44.2575 51.1066 44.2415 51.4663 44.4278C51.7811 44.5916 52.0187 44.9192 52.0765 45.356C52.1922 46.2617 51.7104 47.2445 50.8593 47.6685L50.8561 47.6717Z" fill="#FCF7F6"/>
<path d="M43.0039 31.3877C42.2845 31.937 41.2759 31.9273 40.579 31.3974C39.882 30.8674 39.8146 29.9071 40.4537 29.2936C41.17 28.6063 42.3455 28.5967 43.0842 29.2551C43.4086 29.5441 43.5756 29.9392 43.566 30.3375C43.5563 30.7357 43.3668 31.1051 43.0007 31.3845L43.0039 31.3877Z" fill="#FCF7F6"/>
<path d="M37.8197 53.7715C37.704 54.1408 37.415 54.4042 37.1773 54.507C36.8015 54.6676 36.4257 54.6194 36.0885 54.4138C35.2598 53.9064 34.8166 52.8882 35.0382 51.9439C35.1314 51.5521 35.3915 51.2373 35.6806 51.1056C36.0628 50.9354 36.4611 50.9772 36.8176 51.1859C37.6783 51.6966 38.1312 52.7854 37.8229 53.7715H37.8197Z" fill="#FCF7F6"/>
<path d="M29.8965 49.7793C29.8066 50.1872 29.5496 50.4859 29.2799 50.6208C28.9266 50.7974 28.5283 50.7525 28.1814 50.5565C27.311 50.0619 26.8485 48.9795 27.099 48.016C27.1954 47.6434 27.4652 47.3608 27.735 47.2387C28.0979 47.0749 28.464 47.107 28.8013 47.3062C29.6396 47.7976 30.1085 48.7965 29.8933 49.7793H29.8965Z" fill="#FCF7F6"/>
<path d="M29.9 39.7775C29.8133 40.1565 29.566 40.4455 29.3187 40.5708C28.975 40.7474 28.5864 40.7282 28.2524 40.5419C27.398 40.0633 26.9227 39.0741 27.0929 38.1137C27.1636 37.7155 27.398 37.3847 27.6935 37.2433C28.0597 37.0699 28.4708 37.0667 28.8241 37.2787C29.6559 37.7797 30.1217 38.7979 29.9032 39.7807L29.9 39.7775Z" fill="#FCF7F6"/>
<path d="M38.096 43.9048C38.0061 44.2902 37.7459 44.5825 37.5018 44.6917C37.1132 44.862 36.7374 44.8202 36.3905 44.6179C35.5073 44.104 35.0737 43.028 35.3563 42.0452C35.4591 41.6887 35.7289 41.4349 35.9858 41.3257C36.3424 41.1748 36.7085 41.2133 37.0329 41.4092C37.868 41.9135 38.3337 42.9252 38.1024 43.9048H38.096Z" fill="#FCF7F6"/>
<path d="M33.8311 46.8784C33.7315 47.2381 33.4649 47.4951 33.2369 47.5946C32.8707 47.752 32.5206 47.7006 32.1802 47.524C31.3355 47.0839 30.8858 46.0594 31.0625 45.1215C31.1363 44.72 31.3933 44.4053 31.6823 44.2639C32.0581 44.0809 32.4564 44.1258 32.8161 44.3378C33.6608 44.8421 34.1041 45.8956 33.8343 46.8784H33.8311Z" fill="#FCF7F6"/>
</g>
<defs>
<filter id="filter0_d_768_5085" x="-0.000273705" y="-0.000173688" width="83.5826" height="83.5826" filterUnits="userSpaceOnUse" color-interpolation-filters="sRGB">
<feFlood flood-opacity="0" result="BackgroundImageFix"/>
<feColorMatrix in="SourceAlpha" type="matrix" values="0 0 0 0 0 0 0 0 0 0 0 0 0 0 0 0 0 0 127 0" result="hardAlpha"/>
<feOffset dy="0.783303"/>
<feGaussianBlur stdDeviation="4.89564"/>
<feComposite in2="hardAlpha" operator="out"/>
<feColorMatrix type="matrix" values="0 0 0 0 0.117647 0 0 0 0 0.352941 0 0 0 0 0.505882 0 0 0 0.5 0"/>
<feBlend mode="normal" in2="BackgroundImageFix" result="effect1_dropShadow_768_5085"/>
<feBlend mode="normal" in="SourceGraphic" in2="effect1_dropShadow_768_5085" result="shape"/>
</filter>
</defs>
</svg>
