<svg width="36" height="40" viewBox="0 0 36 40" fill="none" xmlns="http://www.w3.org/2000/svg">
<path d="M20.5062 39.3223C18.8486 40.2765 16.512 40.2061 14.7871 39.2183L10.9152 36.9979L2.35187 32.1046C0.938912 31.1534 0.116217 29.6242 0 27.9177V12.2865C0.103984 10.4943 1.06736 8.66233 2.60571 7.77846L14.625 0.866599C16.3836 -0.142656 18.6376 -0.353682 20.4359 0.68004L32.758 7.76623C34.3514 8.68373 35.275 10.5004 35.3759 12.3507L35.3637 27.777C35.3637 29.5508 34.4186 31.1626 32.9873 32.1474L20.5032 39.3192L20.5062 39.3223ZM16.3163 17.6814C17.2216 18.0729 18.292 18.134 19.1636 17.6294L32.5714 9.87649C32.2992 9.54925 31.9842 9.36575 31.6141 9.15472L20.0689 2.50587C18.7691 1.75658 17.142 1.51497 15.7902 2.28567L3.75259 9.16084C3.38865 9.3688 3.08893 9.57677 2.81368 9.88566L11.8909 15.1063L16.3163 17.6783V17.6814ZM15.2306 37.3986C15.7627 37.7013 16.2429 37.9766 16.8087 38.1081V22.1955C16.8087 20.9141 16.3224 19.7305 15.2153 19.0943L1.95734 11.4638C1.79219 12.0204 1.74632 12.5158 1.74632 13.0908L1.77078 27.8749C1.77078 29.2419 2.66076 30.242 3.77094 30.872L12.0407 35.5697L15.2336 37.3986H15.2306ZM26.5526 33.7958L32.0423 30.6304C32.972 30.0952 33.5898 28.9881 33.5898 27.884L33.6112 12.7208C33.6112 12.2712 33.5317 11.8981 33.4124 11.4424L19.8609 19.3084C19.0015 20.021 18.5581 21.0609 18.5825 22.1925V38.1356C18.9923 38.0592 19.3502 37.9399 19.7049 37.735L26.5526 33.7928V33.7958Z" fill="#1E5A81"/>
<path d="M29.8649 28.9638C29.5346 29.1473 29.2135 29.1412 28.9076 29.0189C28.6507 28.9179 28.4244 28.661 28.3266 28.3154C28.0452 27.3062 28.5712 26.1807 29.5407 25.7556C29.8374 25.6241 30.1922 25.6425 30.4827 25.8137C31.3849 26.3489 31.1433 28.2482 29.868 28.9638H29.8649Z" fill="#1E5A81"/>
<path d="M22.6901 23.887C22.3689 24.0307 22.0203 24.0185 21.7297 23.8472C21.5371 23.734 21.3199 23.468 21.2496 23.1621C21.0263 22.1957 21.5218 21.1589 22.4118 20.7216C23.0204 20.4249 23.7085 20.7277 23.8859 21.3913C24.1489 22.37 23.6382 23.4618 22.6901 23.887Z" fill="#1E5A81"/>
<path d="M26.3198 26.3456C25.9894 26.5107 25.653 26.5138 25.3472 26.37C25.1301 26.2691 24.8884 26.0153 24.8059 25.7003C24.5643 24.7797 25.0077 23.749 25.8396 23.2903C26.1974 23.0945 26.5583 23.0793 26.9008 23.2566C27.2006 23.4126 27.4269 23.7246 27.4819 24.1405C27.592 25.003 27.1333 25.9388 26.3228 26.3425L26.3198 26.3456Z" fill="#1E5A81"/>
<path d="M18.8414 10.8399C18.1564 11.3629 17.196 11.3537 16.5324 10.8491C15.8687 10.3444 15.8045 9.42999 16.4131 8.84585C17.0951 8.19136 18.2145 8.18219 18.9179 8.80915C19.2268 9.0844 19.3858 9.46058 19.3766 9.83981C19.3675 10.219 19.187 10.5708 18.8384 10.8368L18.8414 10.8399Z" fill="#1E5A81"/>
<path d="M13.9057 32.1535C13.7956 32.5053 13.5204 32.756 13.294 32.8539C12.9362 33.0068 12.5784 32.9609 12.2573 32.7652C11.4682 32.282 11.0462 31.3125 11.2572 30.4133C11.3459 30.0402 11.5936 29.7405 11.8689 29.6151C12.2328 29.453 12.612 29.4928 12.9515 29.6916C13.7711 30.1779 14.2024 31.2146 13.9088 32.1535H13.9057Z" fill="#1E5A81"/>
<path d="M6.36117 28.352C6.27553 28.7404 6.03086 29.0248 5.77396 29.1532C5.43755 29.3215 5.05831 29.2786 4.72801 29.0921C3.8992 28.6211 3.45879 27.5904 3.69735 26.6729C3.7891 26.3182 4.046 26.049 4.3029 25.9328C4.64849 25.7768 4.99714 25.8074 5.31827 25.997C6.1165 26.465 6.56302 27.4161 6.35811 28.352H6.36117Z" fill="#1E5A81"/>
<path d="M6.36288 18.8284C6.28031 19.1893 6.04482 19.4645 5.80932 19.5838C5.48208 19.752 5.11202 19.7337 4.79395 19.5563C3.98043 19.1006 3.5278 18.1586 3.68989 17.2442C3.75717 16.8649 3.98043 16.5499 4.2618 16.4154C4.61045 16.2502 5.00192 16.2471 5.33834 16.449C6.13045 16.9261 6.57391 17.8956 6.36594 18.8315L6.36288 18.8284Z" fill="#1E5A81"/>
<path d="M14.169 22.7582C14.0834 23.1253 13.8356 23.4036 13.6032 23.5075C13.2332 23.6696 12.8753 23.6299 12.545 23.4372C11.704 22.9479 11.2911 21.9233 11.5602 20.9875C11.6581 20.648 11.915 20.4064 12.1597 20.3024C12.4991 20.1587 12.8478 20.1954 13.1567 20.3819C13.9519 20.8621 14.3953 21.8255 14.1751 22.7582H14.169Z" fill="#1E5A81"/>
<path d="M10.1081 25.5903C10.0133 25.9328 9.75942 26.1775 9.54227 26.2723C9.19362 26.4221 8.86026 26.3732 8.53608 26.205C7.73173 25.786 7.30356 24.8104 7.47177 23.9173C7.54211 23.535 7.78678 23.2353 8.06203 23.1008C8.41986 22.9264 8.7991 22.9693 9.14163 23.1711C9.94598 23.6513 10.368 24.6544 10.1111 25.5903H10.1081Z" fill="#1E5A81"/>
</svg>
