<svg width="79" height="79" viewBox="0 0 79 79" fill="none" xmlns="http://www.w3.org/2000/svg">
<g filter="url(#filter0_d_325_1967)">
<rect x="7.22363" y="6.64563" width="64" height="64" rx="32" fill="#E16D05" shape-rendering="crispEdges"/>
<rect x="9.0295" y="8.4515" width="60.3883" height="60.3883" rx="30.1941" stroke="white" stroke-width="3.61174" shape-rendering="crispEdges"/>
<path d="M26.9223 37.1724C26.9188 37.1032 26.9162 37.0339 26.9145 36.9646C26.8917 35.868 26.8683 33.7587 27.0398 32.7354C27.3643 30.7992 28.3295 28.2922 29.5629 26.7516C29.9479 26.2706 30.4365 25.7925 30.8762 25.3542C31.9763 24.2379 33.261 23.5773 34.6788 22.9667C36.1091 22.3506 37.6328 22.0921 39.1926 22.0657C42.3606 22.0208 45.4188 23.225 47.7057 25.4177C49.8876 27.5346 51.2429 30.3603 51.5279 33.387C51.6265 34.5249 51.5651 36.0133 51.584 37.1933C53.1357 37.0283 54.5762 37.6544 54.9375 39.3141C55.0195 39.6906 54.95 40.1045 54.9425 40.4876C54.6375 41.4979 54.2468 41.8713 53.3212 42.3677L53.2506 42.4054C53.2262 42.5331 53.1699 42.9392 53.1454 43.0251C53.0512 43.3727 52.9801 44.0227 52.908 44.42C52.6962 45.587 52.4864 46.7351 52.2805 47.9056C52.038 49.2297 51.8691 50.6446 51.4411 51.9216C51.1251 52.8645 50.4695 53.5271 49.7298 54.1402C48.9991 54.7456 48.238 55.0915 47.2846 55.1682C46.2262 55.2533 45.1738 55.2204 44.1196 55.2208L38.7177 55.2217L33.9754 55.2214C33.524 55.2214 33.0654 55.2154 32.6162 55.2201C31.2905 55.2336 29.958 55.1479 28.89 54.2641C28.101 53.6112 27.4687 52.8445 27.05 51.8997C26.879 51.5139 26.8215 51.0634 26.7212 50.6553C26.5062 49.7143 26.3677 48.7628 26.1958 47.8151C25.9755 46.6427 25.7654 45.4683 25.5655 44.2922C25.4676 43.7155 25.3368 43.0132 25.2754 42.4376C24.9292 42.1712 24.4836 42.0019 24.1627 41.6857C23.2143 40.7502 23.2563 38.932 24.1932 38.0098C24.9698 37.2455 25.9019 37.1642 26.9223 37.1724ZM49.8409 51.8035C50.4087 50.492 50.5877 49.0289 50.8257 47.6249C51.108 45.959 51.5152 44.2117 51.7183 42.5448C50.1313 42.5932 48.3473 42.554 46.7486 42.5539L37.3902 42.5525L30.278 42.5522L27.9651 42.5522C27.5879 42.5522 27.0958 42.5665 26.7252 42.5467C26.8847 43.2632 26.9388 44.0551 27.1083 44.749C27.5078 46.3842 27.7755 48.0293 28.0599 49.6853C28.2662 50.8868 28.4252 51.9392 29.3823 52.7904C30.6281 53.8981 32.2424 53.7192 33.7738 53.7145L37.5408 53.7126L43.4454 53.7132C44.6651 53.7154 46.5321 53.808 47.651 53.5556C48.4939 53.3628 49.2241 52.8398 49.6776 52.1039C49.7386 52.0074 49.7931 51.9071 49.8409 51.8035ZM28.6833 37.1676C29.47 37.2066 30.5065 37.1794 31.3111 37.1794L36.1149 37.1798L50.0647 37.1734C50.0635 36.9253 50.0597 36.6772 50.0532 36.4292C50.1472 33.8749 49.9995 31.4791 48.7455 29.1758C48.1187 28.0245 47.7357 27.5771 46.8263 26.6359C42.9771 22.6522 35.957 22.6078 31.9454 26.3607C29.7571 28.3781 28.4807 31.1969 28.4081 34.1724C28.3904 34.8638 28.3883 35.5556 28.4017 36.2472C28.4049 36.4509 28.4015 36.9641 28.437 37.146C28.5378 37.1992 28.5499 37.1766 28.6833 37.1676ZM25.0319 39.474C24.9097 39.8965 24.9278 40.3628 25.2457 40.7001C25.6053 41.0815 26.1257 41.1312 26.6195 41.136C27.4224 41.1438 28.2259 41.1402 29.0291 41.1392L34.655 41.1381L46.0244 41.1385L49.7402 41.1391C50.5048 41.1391 51.2658 41.1414 52.0303 41.1234C52.6851 41.108 53.2849 40.8957 53.5379 40.2447C53.6363 39.8712 53.5767 39.4398 53.3258 39.1348C52.7936 38.4875 51.7038 38.631 50.9227 38.6305L48.536 38.6307L40.8696 38.6304L30.9996 38.6312C29.3915 38.6314 27.7873 38.5674 26.1817 38.6367C25.729 38.6562 25.0682 38.9744 25.0319 39.474Z" fill="white"/>
<path d="M45.5881 48.949C46.2087 48.9282 48.2279 48.8222 48.6279 49.202C48.7659 49.3329 48.8375 49.5148 48.837 49.7039C48.8365 49.884 48.7711 50.059 48.6406 50.185C48.3295 50.4852 47.7592 50.4167 47.3588 50.4152C46.5243 50.4053 45.2158 50.5541 44.4417 50.2215C44.2601 50.1435 44.2068 49.8641 44.166 49.6816C44.3906 48.9384 44.9056 48.9704 45.5881 48.949Z" fill="white"/>
<path d="M30.6903 48.9758C31.4796 48.8634 32.5606 48.9997 33.382 48.9632C34.0454 48.9337 34.7606 49.4864 34.19 50.1411C33.9661 50.3981 33.6799 50.4024 33.3652 50.4086L31.0908 50.4324C30.1594 50.4384 29.0731 50.0449 30.095 49.0735C30.2546 49.032 30.5194 49.0005 30.6903 48.9758Z" fill="white"/>
<path d="M35.0008 45.0039C35.54 44.9825 38.1042 44.9151 38.4319 45.1665C38.5753 45.2764 38.6408 45.4488 38.6596 45.6239C38.6815 45.8269 38.6329 46.1145 38.4905 46.2708C38.3432 46.4323 38.093 46.4565 37.8884 46.4633L35.9602 46.4721C35.5968 46.4739 35.194 46.4929 34.8345 46.4488C34.403 46.3959 33.9978 46.1214 34.1096 45.6354C34.2186 45.1615 34.563 45.0519 35.0008 45.0039Z" fill="white"/>
<path d="M40.8054 45.0051C41.3995 44.9857 43.9143 44.9062 44.2455 45.185C44.3847 45.3022 44.4484 45.4963 44.4605 45.6729C44.4751 45.8849 44.4312 46.0825 44.2864 46.243C44.1011 46.4483 43.9096 46.458 43.6512 46.4698C43.1636 46.4851 40.4079 46.5497 40.1369 46.3303C40.0231 46.2382 39.9758 46.071 39.9602 45.9319C39.9351 45.708 39.974 45.4132 40.1246 45.2357C40.2964 45.0335 40.5612 45.0241 40.8054 45.0051Z" fill="white"/>
<path d="M30.2999 45.0071C30.8319 44.9949 31.3492 44.9902 31.8805 45.0095C32.8206 45.0436 33.2612 45.5457 32.6214 46.3733C32.2196 46.5109 31.3839 46.4791 30.9192 46.4832C30.2868 46.4849 29.5101 46.5257 28.9001 46.4167C28.1318 46.2795 28.1834 45.0604 29.0567 45.0254C29.4722 45.0088 29.885 45.0093 30.2999 45.0071Z" fill="white"/>
<path d="M47.694 45.0074C48.1971 44.9988 49.8071 44.89 50.0158 45.2336C50.9242 46.7288 48.663 46.4702 48.1447 46.4658C47.5778 46.4617 46.3234 46.6195 45.8762 46.2446C45.4749 45.9082 45.7287 45.0595 46.3501 45.024C46.7887 44.9989 47.2403 45.008 47.694 45.0074Z" fill="white"/>
<path d="M36.0456 47.6251C37.1172 47.734 36.7136 48.531 36.8366 49.3729C36.8217 49.7037 36.8896 50.113 36.8436 50.4349C36.7411 51.1522 36.9595 51.7075 36.1425 51.9085C35.9816 51.9022 35.7987 51.8621 35.6606 51.7767C35.4969 51.6754 35.449 51.4676 35.4112 51.2907C35.3013 50.7763 35.2316 48.2926 35.507 47.8896C35.6274 47.7134 35.8499 47.665 36.0456 47.6251Z" fill="white"/>
<path d="M38.0619 48.9725C38.087 48.9692 38.1122 48.9664 38.1375 48.9639C38.7048 48.9101 40.8036 48.8461 41.2515 49.191C41.7495 49.5744 41.4817 50.3412 40.6804 50.4026C40.1876 50.4203 39.7019 50.4128 39.1866 50.4211C38.446 50.433 36.627 50.5813 37.3161 49.2622C37.4308 49.0426 37.8395 49.0115 38.0619 48.9725Z" fill="white"/>
<path d="M42.519 47.651C43.0019 47.5531 43.289 47.8051 43.3366 48.2812C43.4412 49.3275 43.4762 50.4465 43.2845 51.4827C43.2501 51.6689 43.0353 51.7881 42.8833 51.8588C42.5358 51.9249 42.4362 51.8613 42.1362 51.6927C42.1315 51.6813 42.1269 51.6698 42.1224 51.6583C41.9012 51.0841 41.8705 48.6289 42.0987 47.9672C42.1572 47.7977 42.3559 47.7087 42.519 47.651Z" fill="white"/>
</g>
<defs>
<filter id="filter0_d_325_1967" x="0.000157833" y="3.29018e-05" width="78.4469" height="78.4469" filterUnits="userSpaceOnUse" color-interpolation-filters="sRGB">
<feFlood flood-opacity="0" result="BackgroundImageFix"/>
<feColorMatrix in="SourceAlpha" type="matrix" values="0 0 0 0 0 0 0 0 0 0 0 0 0 0 0 0 0 0 127 0" result="hardAlpha"/>
<feOffset dy="0.577878"/>
<feGaussianBlur stdDeviation="3.61174"/>
<feComposite in2="hardAlpha" operator="out"/>
<feColorMatrix type="matrix" values="0 0 0 0 0.67451 0 0 0 0 0.458824 0 0 0 0 0.211765 0 0 0 0.5 0"/>
<feBlend mode="normal" in2="BackgroundImageFix" result="effect1_dropShadow_325_1967"/>
<feBlend mode="normal" in="SourceGraphic" in2="effect1_dropShadow_325_1967" result="shape"/>
</filter>
</defs>
</svg>
