<svg width="79" height="79" viewBox="0 0 79 79" fill="none" xmlns="http://www.w3.org/2000/svg">
<g filter="url(#filter0_d_325_1958)">
<rect x="7.22363" y="6.6456" width="64" height="64" rx="32" fill="#E16D05" shape-rendering="crispEdges"/>
<rect x="9.0295" y="8.45147" width="60.3883" height="60.3883" rx="30.1941" stroke="white" stroke-width="3.61174" shape-rendering="crispEdges"/>
<path d="M54.9698 29.7282L52.2008 27.0464C51.8709 26.7283 51.5009 26.5586 51.1333 26.5586C50.7656 26.5586 50.4192 26.7212 50.1129 27.0299L45.0957 32.0778L43.5639 35.1955C43.3329 35.6669 42.5835 36.3998 42.2065 36.527L40.7572 37.0148L37.022 33.2113L39.5883 30.579C40.3094 29.839 40.3636 27.8524 39.6802 27.1501L37.3755 24.7841C36.8311 24.2256 35.9968 23.8792 35.198 23.8792C34.5852 23.8792 34.0479 24.0842 33.645 24.4707L30.8689 27.1383C30.5319 26.9168 30.1713 26.7966 29.832 26.7966C29.4667 26.7966 29.1344 26.9333 28.8776 27.1949L26.7873 29.3205C26.25 29.8673 26.3183 30.7015 26.6364 31.3614L23.8062 34.2317C23.0426 35.0047 22.7575 36.5859 23.5493 37.3872L26.66 40.5356C27.0017 40.882 27.4589 41.0635 27.9844 41.0611C28.6961 41.0611 29.4809 40.7147 29.9734 40.1892L32.3206 37.8538L35.9167 41.5584L29.0755 48.409C27.9632 49.5237 28.2554 51.4231 29.2122 52.4293C29.7825 53.0256 30.7086 53.412 31.5712 53.412C32.2263 53.412 32.7966 53.1929 33.2184 52.7828L40.1562 46.0076L46.7311 52.6744C47.2001 53.1505 47.8222 53.4026 48.5245 53.4026C49.4507 53.4026 50.4828 52.9525 51.1498 52.2597C52.5237 50.8339 52.4482 48.8638 51.515 47.9165L44.9496 41.2567L45.3902 39.7603L46.6934 38.4241L49.9809 36.52L50.0021 36.5035C51.1757 35.4972 52.2526 34.4155 53.2943 33.3668C53.8434 32.813 54.4136 32.2404 54.9981 31.6771C55.2385 31.4462 55.3704 31.1163 55.3704 30.7416C55.3704 30.3457 55.2196 29.9639 54.9674 29.7188L54.9698 29.7282ZM28.9765 38.8223C28.7197 39.0745 28.3898 39.3219 28.1894 39.3243C27.9915 39.3243 27.5932 39.0934 27.4495 38.9496L25.0175 36.5247C24.6993 36.2089 24.836 35.4689 25.2225 35.2144L34.59 25.8422C34.8303 25.6018 35.7376 25.6348 35.9474 25.7692L37.8774 27.6521C38.6127 28.3685 38.6103 29.2404 37.868 29.9804L28.9765 38.8223ZM32.3488 51.3689C31.6913 52.0264 30.7086 51.6847 30.3316 51.145C29.8391 50.4309 30.0441 49.7522 30.6497 49.156L37.2765 42.6282L39.1618 44.5795L32.3488 51.3689ZM50.1199 48.8591C50.8858 49.6368 50.3061 50.8763 49.7217 51.2628C48.7201 51.9274 47.9165 51.6399 47.0705 50.7585L33.3009 36.4139L35.6363 34.1704L50.1176 48.8591H50.1199ZM49.0689 35.1272C48.2441 35.9284 46.9692 36.1877 46.0265 36.9017C44.8129 37.8137 43.3706 39.1782 43.611 40.3164L41.7587 38.5136C42.4351 38.2968 42.9535 38.1366 43.3282 37.7454L44.9943 36.0156L46.4931 32.9898L51.1073 28.3543L53.6077 30.7298L49.0689 35.1248V35.1272Z" fill="white"/>
</g>
<defs>
<filter id="filter0_d_325_1958" x="0.000157833" y="2.38419e-06" width="78.4469" height="78.4469" filterUnits="userSpaceOnUse" color-interpolation-filters="sRGB">
<feFlood flood-opacity="0" result="BackgroundImageFix"/>
<feColorMatrix in="SourceAlpha" type="matrix" values="0 0 0 0 0 0 0 0 0 0 0 0 0 0 0 0 0 0 127 0" result="hardAlpha"/>
<feOffset dy="0.577878"/>
<feGaussianBlur stdDeviation="3.61174"/>
<feComposite in2="hardAlpha" operator="out"/>
<feColorMatrix type="matrix" values="0 0 0 0 0.67451 0 0 0 0 0.458824 0 0 0 0 0.211765 0 0 0 0.5 0"/>
<feBlend mode="normal" in2="BackgroundImageFix" result="effect1_dropShadow_325_1958"/>
<feBlend mode="normal" in="SourceGraphic" in2="effect1_dropShadow_325_1958" result="shape"/>
</filter>
</defs>
</svg>
