<svg width="79" height="79" viewBox="0 0 79 79" fill="none" xmlns="http://www.w3.org/2000/svg">
<g filter="url(#filter0_d_262_2951)">
<rect x="7.22363" y="6.64551" width="64" height="64" rx="32" fill="#FCC400" shape-rendering="crispEdges"/>
<rect x="7.22363" y="6.64551" width="64" height="64" rx="32" fill="black" fill-opacity="0.05" shape-rendering="crispEdges"/>
<rect x="9.0295" y="8.45138" width="60.3883" height="60.3883" rx="30.1941" stroke="white" stroke-width="3.61174" shape-rendering="crispEdges"/>
<path d="M38.7992 22.2724C38.8313 22.2709 38.8634 22.2697 38.8954 22.2688C44.9503 22.1204 50.416 24.4742 54.766 28.6299C57.2027 30.9584 59.2951 33.675 60.6455 36.7779C61.3348 38.3623 61.4004 38.739 60.7091 40.3121C59.5717 42.9004 57.9136 45.2647 55.9798 47.3139C51.5764 51.9806 45.992 54.5413 39.5668 54.6882C33.9079 54.7836 28.4238 52.7281 24.222 48.9362C21.5551 46.5628 19.3176 43.6255 17.8224 40.3747C17.0892 38.7808 17.0525 38.5385 17.7648 36.9466C19.01 34.1642 20.7074 31.8127 22.7835 29.6043C26.246 25.9212 30.7075 23.2991 35.7391 22.5288C36.8599 22.3529 37.6879 22.3102 38.7992 22.2724ZM19.2944 38.6029C19.5867 39.3913 19.9793 40.2068 20.3908 40.9395C22.7443 45.1305 26.391 48.7968 30.7767 50.8142C33.1881 51.9361 35.802 52.5568 38.4602 52.6393C38.9051 52.6559 39.603 52.6827 40.0434 52.6467C40.4229 52.6127 40.7994 52.6055 41.1781 52.5732C41.8619 52.5104 42.5418 52.4133 43.2159 52.2822C48.0813 51.3157 52.3265 48.5379 55.4932 44.7582C56.9117 43.0653 58.466 40.7127 59.1562 38.6076C58.7972 37.4711 58.1001 36.1623 57.4749 35.1585C55.2343 31.522 52.066 28.5477 48.2951 26.5414C45.6656 25.1842 42.7645 24.4367 39.8066 24.3544C39.4318 24.3461 38.7441 24.3346 38.379 24.3735C37.344 24.4442 36.4437 24.5242 35.4181 24.7269C30.5198 25.695 26.5789 28.3771 23.3362 32.0966C21.9806 33.6548 20.8276 35.3783 19.9045 37.2259C19.6897 37.6623 19.4892 38.1526 19.2944 38.6029Z" fill="white"/>
<path d="M38.8623 31.5526C42.7664 31.3503 46.0966 34.3481 46.3046 38.2519C46.5124 42.1555 43.5194 45.4901 39.6158 45.7034C35.7046 45.9172 32.362 42.9167 32.1538 39.0054C31.9455 35.0937 34.9506 31.7554 38.8623 31.5526ZM39.6429 43.6401C42.4154 43.411 44.4754 40.9743 44.24 38.2024C44.0043 35.4302 41.5632 33.376 38.7915 33.6178C36.029 33.8588 33.9828 36.2905 34.2175 39.0535C34.4522 41.8166 36.8792 43.8686 39.6429 43.6401Z" fill="white"/>
</g>
<defs>
<filter id="filter0_d_262_2951" x="0.000157833" y="-8.91685e-05" width="78.4469" height="78.4469" filterUnits="userSpaceOnUse" color-interpolation-filters="sRGB">
<feFlood flood-opacity="0" result="BackgroundImageFix"/>
<feColorMatrix in="SourceAlpha" type="matrix" values="0 0 0 0 0 0 0 0 0 0 0 0 0 0 0 0 0 0 127 0" result="hardAlpha"/>
<feOffset dy="0.577878"/>
<feGaussianBlur stdDeviation="3.61174"/>
<feComposite in2="hardAlpha" operator="out"/>
<feColorMatrix type="matrix" values="0 0 0 0 0.67451 0 0 0 0 0.458824 0 0 0 0 0.211765 0 0 0 0.5 0"/>
<feBlend mode="normal" in2="BackgroundImageFix" result="effect1_dropShadow_262_2951"/>
<feBlend mode="normal" in="SourceGraphic" in2="effect1_dropShadow_262_2951" result="shape"/>
</filter>
</defs>
</svg>
