<svg width="34" height="25" viewBox="0 0 34 25" fill="none" xmlns="http://www.w3.org/2000/svg">
<path d="M10.2977 21.2004C11.4372 21.1578 12.7947 21.1903 13.9504 21.1908L20.7349 21.1913L28.4809 21.1898C29.8545 21.1898 31.2338 21.1836 32.6073 21.1975C32.7887 21.208 33.0194 21.1999 33.1864 21.275C33.8943 21.5923 34.2269 22.4409 33.8244 23.1277C33.599 23.512 33.363 23.6393 32.9457 23.7671C31.9124 23.813 30.5633 23.7771 29.5099 23.7771L22.9967 23.7776L14.901 23.7771C13.4849 23.7767 12.0719 23.78 10.6533 23.769C10.0811 23.8097 9.4954 23.5115 9.33081 22.9128C9.09032 22.0379 9.48257 21.4502 10.2977 21.2004Z" fill="#1E5A81"/>
<path d="M10.4464 1.25608C11.607 1.21765 12.9752 1.25015 14.1475 1.24996L21.2516 1.24895L28.5296 1.24723C29.8342 1.24627 31.1073 1.25752 32.4569 1.2524C33.6701 1.2478 34.3244 2.05079 33.7936 3.25527C33.6558 3.56808 33.204 3.74387 32.8747 3.82087C31.3892 3.86409 29.7371 3.83083 28.2429 3.83068L19.6053 3.82934L13.642 3.82896C12.6059 3.82877 11.5446 3.84236 10.5095 3.81178C10.2258 3.80341 10.0439 3.7655 9.8025 3.60225C9.52832 3.4134 9.34205 3.12184 9.28586 2.79366C9.13223 1.94272 9.62231 1.37817 10.4464 1.25608Z" fill="#1E5A81"/>
<path d="M13.8886 11.4877L14.2874 11.502L14.1991 11.648L14.2439 11.6973C14.6083 11.648 15.1154 11.4698 15.3707 11.41C15.6289 11.3495 17.4068 11.3497 17.6136 11.3781C17.1537 11.5568 15.5335 11.3687 14.9008 11.6633C15.4397 11.7265 17.0082 11.816 17.5212 11.7323C19.2523 11.4488 20.8345 11.5285 22.59 11.5574C22.8216 11.5853 23.1667 11.5748 23.4036 11.5571C23.4883 11.5877 27.6602 11.7471 28.1431 11.739L28.235 11.7519L28.2321 11.8155C28.2058 12.4784 28.2723 12.7636 28.167 13.5083C28.2374 13.6064 28.2661 13.6375 28.3503 13.7251L28.3599 13.7677L14.3967 13.7716C14.6646 13.5973 14.7433 13.415 14.6443 13.1278L14.5659 13.0785L14.5752 12.9977C14.5599 13.0987 14.543 13.1996 14.5246 13.3006C14.4164 13.4011 13.9748 13.3863 13.7962 13.3916C13.6944 13.3671 13.6148 13.3423 13.515 13.3107L13.5252 13.2772C13.6681 13.2662 13.8927 13.259 14.0239 13.2231C13.96 13.1451 13.2451 13.0776 13.185 13.0163C12.5073 12.3248 12.8539 12.241 11.8506 11.917C12.1733 11.8074 12.8433 11.5762 13.138 11.7394C13.4562 11.7571 13.62 11.536 13.8886 11.4877Z" fill="#1E5A81"/>
<path d="M2.30267 19.9342C3.67527 19.8179 4.88587 20.8277 5.01777 22.1989C5.14967 23.5705 4.15377 24.7924 2.78418 24.9403C1.88409 25.0369 1.00138 24.6431 0.472917 23.9079C-0.0555448 23.1728 -0.148106 22.2104 0.230556 21.3881C0.609171 20.5659 1.40057 20.0107 2.30267 19.9342Z" fill="#1E5A81"/>
<path d="M2.1647 0.0250811C3.53592 -0.168893 4.80548 0.783272 5.00328 2.15392C5.20104 3.52457 4.25237 4.79682 2.88231 4.99835C1.50683 5.2007 0.228511 4.24754 0.0299906 2.87153C-0.168577 1.49547 0.788129 0.219821 2.1647 0.0250811Z" fill="#1E5A81"/>
<path d="M2.23316 9.98228C3.61055 9.82597 4.85312 10.8176 5.00622 12.1953C5.15937 13.5732 4.16481 14.8133 2.7867 14.9631C1.41319 15.1124 0.177896 14.1222 0.0253207 12.7491C-0.127302 11.3757 0.860369 10.1381 2.23316 9.98228Z" fill="#1E5A81"/>
<path d="M27.959 11.2425C28.8535 11.1935 29.6422 11.1626 30.5396 11.197C29.982 11.2295 29.3943 11.2177 28.853 11.2574C29.6948 11.4486 30.8243 11.538 31.6949 11.6774C32.0194 11.729 32.4879 11.564 32.8253 11.5917C33.1024 11.596 33.525 11.9076 33.7648 11.763C34.1113 12.2737 34.0596 13.1481 33.5576 13.4788C32.7698 13.9976 31.0402 13.7655 30.1098 13.7813C30.205 13.6942 30.2179 13.6999 30.2481 13.5788C30.205 13.4553 30.1773 13.4003 30.1911 13.2668C30.3993 13.2586 30.3931 13.2672 30.563 13.1552C30.4706 13.1122 30.5142 13.128 30.4017 13.0997L30.3161 13.0792C29.9609 12.7336 30.5056 12.3488 30.1777 11.8319L30.2701 11.7855C30.0911 11.6807 29.6532 11.7467 29.3502 11.6735C28.9473 11.5759 28.7372 11.4884 28.3648 11.3039C28.2246 11.3023 28.0968 11.27 27.959 11.2425Z" fill="#1E5A81"/>
<path d="M9.88967 13.6093C9.09176 13.1628 9.05223 12.085 9.71709 11.4844C9.92092 11.3004 10.1921 11.2412 10.462 11.2246C11.3786 11.1685 12.3041 11.193 13.223 11.1988L17.6501 11.2088L22.2551 11.2068C22.9084 11.2066 24.1896 11.1734 24.7998 11.2357C24.1039 11.2954 22.9529 11.2609 22.2264 11.2606L17.517 11.2571C16.2923 11.256 15.0707 11.1734 13.8892 11.4877C13.6206 11.536 13.4568 11.7572 13.1386 11.7395C12.8439 11.5763 12.1738 11.8074 11.8512 11.917C12.8545 12.241 12.5079 12.3248 13.1856 13.0164C13.2457 13.0776 13.9606 13.1451 14.0245 13.2231C13.8933 13.259 13.6687 13.2662 13.5258 13.2772L13.5156 13.3107C13.6154 13.3423 13.695 13.3672 13.7968 13.3916C13.3939 13.428 13.3108 13.5658 12.9808 13.5926C13.0698 13.4624 13.2682 13.3988 13.4219 13.3308C13.2086 13.226 12.8651 13.0853 12.7505 12.8914C12.697 12.801 12.7188 12.8206 12.6347 12.7742L12.6223 12.9656L12.5747 12.9934C12.3428 12.9704 12.1696 12.8421 11.9353 12.7536L11.8985 12.8177L11.9775 12.8321L11.9636 12.8914L11.8759 12.9235C11.7467 12.8599 11.6323 12.7842 11.4934 12.7876C11.347 12.867 11.2538 12.9144 11.1195 13.0154L11.0707 13.0518C10.9416 13.1499 10.9126 13.1623 10.8559 13.3179L10.9019 13.4859C10.606 13.4538 10.1672 13.2423 9.96471 13.2858L9.93992 13.3528C9.99568 13.4418 10.0708 13.5222 10.0656 13.6055L9.88967 13.6093Z" fill="#1E5A81"/>
<path d="M24.7983 11.2358C25.7943 11.2317 26.9802 11.1963 27.9551 11.2425C28.0929 11.2699 28.2207 11.3022 28.361 11.3038L28.3289 11.5173C28.1662 11.6275 28.058 11.5668 27.9269 11.6452C28.0006 11.6787 28.0671 11.7098 28.1422 11.739C27.6593 11.7472 23.4874 11.5878 23.4027 11.5572C23.643 11.4609 23.7679 11.5945 23.9407 11.4893C23.7957 11.4094 22.2426 11.459 21.9373 11.4711C22.0694 11.522 22.4187 11.5376 22.5891 11.5574C20.8337 11.5286 19.2514 11.4488 17.5204 11.7323C17.0073 11.8161 15.4389 11.7266 14.8999 11.6634C15.5326 11.3687 17.1528 11.5569 17.6127 11.3782C17.406 11.3497 15.628 11.3495 15.3698 11.41C15.1145 11.4698 14.6075 11.6481 14.243 11.6974L14.1982 11.6481L14.2866 11.502L13.8877 11.4877C15.0692 11.1734 16.2909 11.2561 17.5156 11.2572L22.2249 11.2606C22.9514 11.2609 24.1024 11.2955 24.7983 11.2358Z" fill="#1E5A81"/>
<path d="M28.3657 11.3037C28.7381 11.4882 28.9482 11.5757 29.3511 11.6733C29.6541 11.7466 30.092 11.6805 30.271 11.7853L30.1786 11.8317C30.5065 12.3486 29.9618 12.7334 30.3169 13.079L30.4026 13.0995C30.5151 13.1278 30.4715 13.112 30.5639 13.1551C30.394 13.2671 30.4002 13.2584 30.192 13.2666C29.7891 13.3006 29.7383 13.067 29.2937 13.2484C29.0874 13.5638 29.4995 13.6494 29.0247 13.7772C28.807 13.7906 28.5825 13.7763 28.3638 13.7677L28.3542 13.7251C28.27 13.6375 28.2413 13.6064 28.1709 13.5083C28.2762 12.7636 28.2097 12.4783 28.236 11.8155L28.2389 11.7518L28.147 11.7389C28.0719 11.7097 28.0053 11.6786 27.9316 11.6451C28.0628 11.5667 28.1709 11.6274 28.3337 11.5172L28.3657 11.3037Z" fill="#1E5A81"/>
<path d="M30.5381 11.1966C31.4776 11.1901 33.1689 10.9504 33.7634 11.7626C33.5236 11.9072 33.101 11.5956 32.8239 11.5913C32.4865 11.5636 32.0179 11.7287 31.6934 11.677C30.8229 11.5376 29.6934 11.4482 28.8516 11.257C29.3929 11.2173 29.9806 11.2291 30.5381 11.1966Z" fill="#1E5A81"/>
<path d="M10.9016 13.486L10.8556 13.318C10.9123 13.1624 10.9413 13.15 11.0704 13.0519L11.1192 13.0155C11.2535 12.9145 11.3467 12.8672 11.4931 12.7877C11.632 12.7844 11.7464 12.86 11.8757 12.9236L11.9633 12.8916C12.1903 13.0816 12.6066 13.1615 12.7147 13.3668C12.7211 13.585 12.6837 13.6228 12.8358 13.7827L12.5349 13.7798C12.1732 13.6296 12.3134 13.4209 12.0111 13.2534C11.5856 13.0174 11.4732 13.5654 11.2413 13.7808L10.7959 13.7813C10.8838 13.6817 10.8829 13.6803 10.9426 13.5611L10.9016 13.486Z" fill="#1E5A81"/>
<path d="M13.7964 13.3917C13.975 13.3864 14.4166 13.4013 14.5248 13.3008C14.5433 13.1998 14.5601 13.0988 14.5754 12.9978L14.5661 13.0787L14.6445 13.128C14.7436 13.4151 14.6648 13.5975 14.397 13.7717C14.087 13.7971 13.6093 13.7813 13.2858 13.7798C13.1846 13.7167 13.0829 13.654 12.9805 13.5927C13.3105 13.5659 13.3935 13.4281 13.7964 13.3917Z" fill="#1E5A81"/>
<path d="M29.0215 13.7771C29.4962 13.6493 29.0842 13.5636 29.2905 13.2482C29.7351 13.0669 29.7858 13.3004 30.1888 13.2664C30.1749 13.4 30.2026 13.455 30.2457 13.5785C30.2156 13.6996 30.2026 13.6938 30.1074 13.7809C29.758 13.7895 29.3737 13.7795 29.0215 13.7771Z" fill="#1E5A81"/>
<path d="M11.9635 12.8915L11.9775 12.8322L11.8984 12.8178L11.9352 12.7537C12.1696 12.8422 12.3427 12.9705 12.5746 12.9934L12.6222 12.9657L12.6346 12.7742C12.7187 12.8207 12.697 12.801 12.7505 12.8915C12.865 13.0853 13.2085 13.226 13.4218 13.3309C13.2681 13.3988 13.0697 13.4625 12.9808 13.5926C13.0832 13.6539 13.1849 13.7166 13.2861 13.7798L12.836 13.7826C12.6839 13.6228 12.7213 13.585 12.7149 13.3667C12.6068 13.1614 12.1905 13.0815 11.9635 12.8915Z" fill="#1E5A81"/>
<path d="M11.2441 13.7806C11.476 13.5652 11.5884 13.0172 12.0139 13.2532C12.3162 13.4207 12.176 13.6293 12.5377 13.7796L11.2441 13.7806Z" fill="#1E5A81"/>
<path d="M9.88867 13.6092L10.0646 13.6054C10.0698 13.5221 9.99468 13.4417 9.93892 13.3527L9.96371 13.2857C10.1662 13.2421 10.605 13.4537 10.9009 13.4857L10.9419 13.5609C10.8822 13.68 10.8831 13.6815 10.7952 13.781C10.3995 13.7892 10.2489 13.8016 9.88867 13.6092Z" fill="#1E5A81"/>
<path d="M22.5913 11.5572C22.4209 11.5374 22.0715 11.5218 21.9395 11.4709C22.2448 11.4588 23.7978 11.4092 23.9428 11.4891C23.7701 11.5943 23.6452 11.4606 23.4049 11.5569C23.168 11.5746 22.8229 11.5852 22.5913 11.5572Z" fill="#1E5A81"/>
</svg>
