<svg
    xmlns="http://www.w3.org/2000/svg"
    width="34"
    height="47"
    viewBox="0 -2 34 49"
    fill="none">

    <path
        d="M15.165 0.56543C19.1884 0.200215 23.1971 1.35583 26.4043 3.79395L26.7129 4.03418C30.1846 6.87078 32.3808 10.9746 32.8145 15.4355L32.8154 15.4404C33.2492 19.4904 31.6321 24.0733 29.2686 28.5195C26.9115 32.9535 23.8597 37.1677 21.5137 40.4766C20.9226 41.3098 20.1797 42.2042 19.4072 43.1084C18.6404 44.0059 17.8398 44.9173 17.1592 45.7607C17.0243 45.909 16.8813 46.0754 16.7441 46.2402C13.8854 43.1302 10.2293 38.467 7.10645 33.5176C3.83141 28.3269 1.1851 22.8895 0.604492 18.6299C0.0631905 14.6598 1.68337 9.67124 4.26562 6.48926L4.26758 6.4873C6.95961 3.133 10.8861 0.999902 15.166 0.566406L15.165 0.56543Z"
        fill="none"
        stroke="#1E5A81"
        stroke-width="2"
        stroke-linecap="round"
        stroke-linejoin="round"/>

    <circle
        cx="16.702"
        cy="17.223"
        r="9.8"
        fill="none"
         stroke="#1E5A81"
        stroke-width="2"/>
</svg>