<svg width="40" height="40" viewBox="0 0 40 40" fill="none" xmlns="http://www.w3.org/2000/svg">
<path d="M19.5184 6.90618C22.7697 6.66594 26.1989 7.96122 28.058 10.6636C30.3004 13.8671 29.7391 18.2092 26.7532 20.7634C25.8623 21.5296 23.8201 22.6674 23.3725 23.414C22.2146 25.4761 24.0203 26.9628 20.3896 26.6761C18.7911 26.5501 17.2919 27.3077 17.4076 24.9717C17.4888 23.3338 17.3682 22.6542 18.1534 21.0882C19.5827 18.5769 21.5274 18.6363 23.0635 16.6118C23.4612 16.0875 23.6094 15.2097 23.4521 14.5503C23.2685 13.7916 22.7846 13.1357 22.1071 12.7276C20.2712 11.6095 17.388 12.2889 16.7352 14.4375C16.318 15.8104 16.2422 16.0892 14.6439 16.0142C13.7141 15.9706 12.7026 16.0424 11.7662 15.994C11.3017 15.9636 10.8923 15.5761 10.8839 15.1155C10.846 13.0369 11.8161 10.9284 13.3097 9.48346C15.0304 7.8189 17.164 7.0758 19.5184 6.90618Z" fill="white"/>
<path d="M19.2125 8.491C19.4669 8.45329 20.0767 8.45192 20.3438 8.45316C22.4279 8.46284 24.5563 9.14616 26.0293 10.6417C27.2769 11.9083 27.9011 13.4732 27.8587 15.2373C27.8513 17.2618 26.6522 19.0229 25.0135 20.1714C23.6794 21.1065 22.1836 21.8354 21.6118 23.4506C21.3963 24.0592 21.3832 24.462 21.3666 25.1035C20.5785 25.0898 19.7641 25.1014 18.9734 25.1022C18.962 22.4911 19.233 21.457 21.4715 19.9087C23.0189 18.9151 24.3971 18.1117 24.9169 16.2441C25.2224 15.1466 25.0672 13.9749 24.4854 12.9904C22.5656 9.70074 17.2373 9.9475 15.5332 13.2686C15.3261 13.6722 15.2165 14.0079 15.1048 14.4436C14.2278 14.4391 13.3507 14.44 12.4736 14.4462C12.9803 10.9521 15.7339 8.83915 19.2125 8.491Z" fill="#1E5A81"/>
<path d="M19.3256 0.00785347C22.2853 -0.0746846 25.2258 0.494255 27.9316 1.67276C28.579 1.95046 30.7479 2.71052 29.7351 3.73111C29.5008 3.96724 29.2058 3.97007 28.9064 3.83859C28.1777 3.51894 27.4801 3.15797 26.7356 2.86287C24.2174 1.84975 21.495 1.41649 18.7791 1.59635C13.9254 1.91429 9.4021 4.1186 6.21324 7.71993C2.88249 11.5205 1.22464 16.4607 1.60322 21.4576C2.0107 26.3683 4.37048 30.9254 8.17367 34.1464C11.8528 37.2388 16.6364 38.7678 21.4679 38.3963C26.2238 38.029 30.7379 35.6553 33.8248 32.1095C37.0726 28.343 38.6711 23.4717 38.2738 18.5556C38.1636 17.1344 37.8909 15.73 37.4603 14.3687C37.2632 13.7665 36.5843 12.4793 36.9332 11.9518C37.042 11.7867 37.2164 11.674 37.4144 11.6415C38.1719 11.5141 38.3494 12.2552 38.5575 12.8042C39.2958 14.7688 39.7333 16.8297 39.8557 18.9199C40.16 24.253 38.2978 29.4872 34.6768 33.4783C31.2804 37.2169 26.3121 39.6866 21.1965 39.9669C15.9132 40.2699 10.7269 38.4828 6.7988 35.0056C2.75345 31.4093 0.319978 26.3923 0.027503 21.0461C-0.253126 15.7075 1.62267 10.4752 5.24874 6.48268C8.97101 2.43197 13.7973 0.284395 19.3256 0.00785347Z" fill="#1E5A81"/>
<path d="M35.8778 1.87476C35.9194 1.91351 36.5539 2.78876 36.6291 2.88828C37.6777 4.27602 38.3773 4.81488 39.9443 5.64191C37.9894 6.67703 37.0161 7.55479 35.9312 9.37476C35.7228 9.18744 35.3304 8.48268 35.0884 8.18513C34.0933 6.96002 33.206 6.39747 31.8193 5.61337C33.883 4.57792 34.7095 3.76528 35.8778 1.87476Z" fill="#1E5A81"/>
<path d="M19.941 28.3924C21.7196 28.2145 23.3098 29.4809 23.4974 31.2238C23.6845 32.9671 22.398 34.5305 20.6207 34.7199C18.835 34.9097 17.2316 33.6417 17.0435 31.8902C16.8554 30.1391 18.1541 28.5711 19.941 28.3924Z" fill="white"/>
<path d="M20.2124 29.9195C21.1334 29.8874 21.9088 30.5893 21.949 31.4923C21.9897 32.3952 21.2802 33.161 20.3597 33.2082C19.4282 33.2562 18.6353 32.5504 18.5944 31.6367C18.5535 30.723 19.28 29.9517 20.2124 29.9195Z" fill="#1E5A81"/>
</svg>
