<svg width="84" height="84" viewBox="0 0 84 84" fill="none" xmlns="http://www.w3.org/2000/svg">
<g filter="url(#filter0_d_768_5223)">
<rect x="9.79102" y="9.00781" width="64" height="64" rx="32" fill="#E16D05"/>
<rect x="11.5976" y="10.8144" width="60.3869" height="60.3869" rx="30.1934" stroke="white" stroke-width="3.61315"/>
<path d="M41.6263 61.8724C40.4067 62.7884 39.2928 53.7474 39.1086 50.4844L38.2196 34.7603L37.9676 25.7708C34.7046 24.3859 31.2004 25.4564 29.0865 28.3102C28.8317 28.4673 28.2816 28.6679 28.0214 28.6462C27.707 28.6191 27.539 27.7735 27.7504 27.5161C30.3413 24.3696 34.0894 22.8574 37.9567 24.0634C38.076 22.6324 38.6722 21.2394 39.9162 20.5321C41.0273 19.9006 42.3228 19.9386 43.3824 20.5971C44.2253 21.1229 45.0844 22.2774 45.1061 23.4915L45.182 27.8305C50.7567 31.2344 53.8029 27.405 54.5671 27.2397C54.7866 27.1909 55.2555 27.5107 55.3368 27.7193C55.9141 29.218 49.9436 32.294 45.1684 29.6815L44.0979 49.4329C43.9895 53.5035 43.4881 57.2652 42.5016 61.2165L41.629 61.8724H41.6263ZM42.3417 53.3816L43.255 36.8254L43.648 28.3237L43.629 23.8737C43.6236 22.6758 42.984 21.795 41.8593 21.6568C41.0219 21.5538 39.7048 22.0985 39.6343 23.3154C39.4826 25.9659 39.45 28.6706 39.6045 31.4268L40.4745 46.88C40.6994 50.8801 40.8078 54.6418 41.6615 58.5552L42.339 53.3816H42.3417Z" fill="white"/>
<path d="M42.5649 24.1386C42.6679 26.22 42.9199 28.8894 41.6814 28.9409C41.3832 28.9545 40.8385 28.4856 40.7897 28.1333C40.497 26.1088 40.5187 23.2524 41.6949 23.2686C42.0012 23.274 42.5513 23.8134 42.5676 24.1359L42.5649 24.1386Z" fill="white"/>
<path d="M42.3258 26.4404L38.1387 24.126L38.0303 25.7846L42.1903 28.1126L42.3258 26.4404Z" fill="white"/>
</g>
<defs>
<filter id="filter0_d_768_5223" x="-0.000208855" y="-0.000114024" width="83.5824" height="83.5824" filterUnits="userSpaceOnUse" color-interpolation-filters="sRGB">
<feFlood flood-opacity="0" result="BackgroundImageFix"/>
<feColorMatrix in="SourceAlpha" type="matrix" values="0 0 0 0 0 0 0 0 0 0 0 0 0 0 0 0 0 0 127 0" result="hardAlpha"/>
<feOffset dy="0.783298"/>
<feGaussianBlur stdDeviation="4.89561"/>
<feComposite in2="hardAlpha" operator="out"/>
<feColorMatrix type="matrix" values="0 0 0 0 0.117647 0 0 0 0 0.352941 0 0 0 0 0.505882 0 0 0 0.5 0"/>
<feBlend mode="normal" in2="BackgroundImageFix" result="effect1_dropShadow_768_5223"/>
<feBlend mode="normal" in="SourceGraphic" in2="effect1_dropShadow_768_5223" result="shape"/>
</filter>
</defs>
</svg>
