<svg width="79" height="79" viewBox="0 0 79 79" fill="none" xmlns="http://www.w3.org/2000/svg">
<g filter="url(#filter0_d_325_1930)">
<rect x="7.22363" y="6.64557" width="64" height="64" rx="32" fill="#E16D05" shape-rendering="crispEdges"/>
<rect x="9.0295" y="8.45144" width="60.3883" height="60.3883" rx="30.1941" stroke="white" stroke-width="3.61174" shape-rendering="crispEdges"/>
<path d="M23.6824 22.5239C25.0856 22.8052 27.1291 24.8074 28.3512 25.6521C28.8726 26.0125 29.4323 26.4014 29.9548 26.7647C30.9359 27.4461 31.91 28.1376 32.8768 28.8391L34.0642 29.7105C34.2249 29.83 34.5807 30.1127 34.7402 30.1979C37.9119 29.1644 42.2001 31.4509 42.6422 34.8996C42.5867 35.197 42.599 35.5999 42.6394 35.9004C42.6154 36.154 42.5903 36.304 42.5376 36.5537C42.8074 36.2688 43.5398 35.6545 43.669 35.3625C44.192 34.1804 43.4839 32.5858 42.9855 31.4884C42.6367 30.7208 41.6739 29.6935 42.1078 28.7765C43.0686 27.4508 45.3391 27.337 46.8151 27.2857C48.2223 27.2368 51.9496 27.3868 52.4684 29.0014C52.4516 29.0786 52.3828 29.6591 52.3968 29.7113C52.3132 30.183 51.6732 31.1311 51.4624 31.6165C50.9718 32.7477 50.6038 34.0557 50.7148 35.2983C50.7802 35.9757 51.3892 36.5271 51.8291 36.9882C52.0673 37.24 52.2918 37.5046 52.5012 37.7807C54.094 39.8816 54.9022 42.5899 54.343 45.1913C53.8757 47.3641 52.8462 49.4766 51.2235 51.0099C52.8002 51.0604 53.4007 51.8447 53.3355 53.3842C53.3334 53.4359 53.3301 53.4874 53.3252 53.5391C53.6828 53.5107 54.0493 53.5055 54.4061 53.529C54.6694 53.5464 54.9464 53.6025 55.1527 53.7734C55.3666 53.9506 55.4147 54.2692 55.213 54.4755C54.9678 54.7298 54.6169 54.73 54.2872 54.736C53.1855 54.7427 52.0818 54.7375 50.9804 54.7365L44.9738 54.7355C43.261 54.7357 41.5513 54.7618 39.843 54.7673C39.5944 54.768 38.7253 54.6749 38.6208 54.5151C37.8095 53.2746 40.5684 53.5205 40.8335 53.5115C40.7483 51.8243 41.2976 51.0994 42.9909 51.0211C43.0236 51.0192 43.0564 51.018 43.0892 51.0167C41.1187 49.2033 39.7451 46.6229 39.637 43.9226C39.5677 42.1928 39.9752 40.4772 40.8151 38.9634C39.6852 39.6388 38.2982 39.9756 37.0039 39.6494C35.5479 39.2823 34.3755 38.2138 33.6247 36.9467C33.3912 36.5526 33.1924 36.1242 33.0307 35.6961C32.7154 34.8613 32.097 32.7084 32.3108 31.8883C32.3557 31.7159 32.4415 31.5526 32.5997 31.4599C32.6856 31.4095 32.7786 31.388 32.8754 31.4187C33.0696 31.4805 33.2022 31.711 33.2832 31.8831C33.5992 32.5541 33.626 33.3339 33.7666 34.0522C34.1072 35.7916 35.0067 37.6742 36.7733 38.3276C37.642 38.6489 38.7799 38.6799 39.6294 38.2846C40.4333 37.9106 41.1023 37.2187 41.4024 36.3805C41.6927 35.5694 41.5192 34.681 41.1554 33.9228C40.6079 32.7819 39.5383 31.9623 38.3582 31.5515C37.3774 31.2101 36.3373 31.1191 35.3047 31.1972C35.1106 31.3798 34.7691 31.7423 34.5644 31.8644C33.0458 31.0683 31.5221 29.6806 30.1204 28.6544C29.3207 28.069 23.271 23.8662 23.1233 23.4201C23.0799 23.2888 23.1216 23.1551 23.1854 23.0384C23.3011 22.8248 23.4729 22.6469 23.6824 22.5239ZM43.0722 29.2689C44.0087 30.8236 45.2136 33.4864 44.7727 35.3427C44.5052 36.469 43.2035 37.4331 42.532 38.3282C40.4296 41.0617 40.2668 45.0071 42.0254 47.9602C42.4285 48.6372 44.0642 50.7138 44.8769 50.9779C45.2518 51.0997 46.9438 51.0469 47.4594 51.0446C47.6966 51.0448 49.1305 51.0777 49.2459 51.0117C53.6091 48.5172 54.7814 41.6337 51.2028 37.9908C50.9454 37.729 50.7031 37.5225 50.4704 37.2432C48.8593 35.4726 49.5761 32.7119 50.5694 30.8221C50.8298 30.3267 51.1562 29.8038 51.3794 29.2825C50.482 28.7059 48.8903 28.5096 47.8416 28.4834C47.4793 28.4743 47.0327 28.4467 46.6722 28.4853C45.1299 28.5903 44.4706 28.559 43.0722 29.2689ZM42.0146 53.5228C43.303 53.5725 44.5925 53.5916 45.8819 53.5808L49.6061 53.564L50.9946 53.5546C51.2276 53.5544 52.1017 53.5955 52.2543 53.452C52.3531 53.1918 52.2504 52.619 52.1516 52.3625C51.1702 52.1413 49.3535 52.192 48.295 52.1982C47.3113 52.2101 46.3181 52.2303 45.3351 52.2295C44.4842 52.229 43.6352 52.1724 42.7818 52.2166C41.708 52.2719 42.045 52.8378 42.0146 53.5228Z" fill="white"/>
<path d="M39.9565 35.2165C40.0933 35.2013 40.3 35.2667 40.4168 35.3409C40.516 35.4038 40.5746 35.5322 40.5979 35.6455C40.6516 35.9063 40.538 36.1715 40.3934 36.3849C39.9614 37.0222 39.4216 37.3821 38.6719 37.5352C38.4837 37.5011 38.192 37.4126 38.0899 37.25C37.6998 36.6292 38.9009 36.3347 39.182 36.0597C39.4838 35.7645 39.6288 35.4508 39.9565 35.2165Z" fill="white"/>
<path d="M42.6429 34.8997C42.6767 35.1434 42.6923 35.6633 42.6401 35.9004C42.5997 35.5999 42.5875 35.197 42.6429 34.8997Z" fill="white"/>
<path d="M52.469 29.0015C52.5256 29.2624 52.5096 29.4638 52.3974 29.7113C52.3834 29.6591 52.4522 29.0786 52.469 29.0015Z" fill="white"/>
</g>
<defs>
<filter id="filter0_d_325_1930" x="0.000157833" y="-2.81334e-05" width="78.4469" height="78.4469" filterUnits="userSpaceOnUse" color-interpolation-filters="sRGB">
<feFlood flood-opacity="0" result="BackgroundImageFix"/>
<feColorMatrix in="SourceAlpha" type="matrix" values="0 0 0 0 0 0 0 0 0 0 0 0 0 0 0 0 0 0 127 0" result="hardAlpha"/>
<feOffset dy="0.577878"/>
<feGaussianBlur stdDeviation="3.61174"/>
<feComposite in2="hardAlpha" operator="out"/>
<feColorMatrix type="matrix" values="0 0 0 0 0.67451 0 0 0 0 0.458824 0 0 0 0 0.211765 0 0 0 0.5 0"/>
<feBlend mode="normal" in2="BackgroundImageFix" result="effect1_dropShadow_325_1930"/>
<feBlend mode="normal" in="SourceGraphic" in2="effect1_dropShadow_325_1930" result="shape"/>
</filter>
</defs>
</svg>
